<svg width="18" height="18" viewBox="0 0 18 18" xmlns="http://www.w3.org/2000/svg"><path fill-rule="evenodd" d="M11.8471 17.9851c-.45694.0841063-.608617-.20342-.608617-.444981V15.0061c0-.865512-.281414-1.41807-.609571-1.70658 2.00329-.227869 4.11341-1.00928 4.11341-4.55347 0-1.00928-.352006-1.83762-.925327-2.47429C13.9104 6.0312 14.2147 5.0943 13.7216 3.82097c-.749801-.240583-2.47167.948641-2.47167.948641 -.714505-.20342-1.48911-.311976-2.25036-.311976 -.761249 0-1.5349.108556-2.2494.311976 0 0-1.72283-1.18922-2.48503-.948641C3.78526 5.0943 4.08956 6.0312 4.18305 6.27179 3.60973 6.90845 3.25772 7.7368 3.25772 8.74607c0 3.53246 2.09773 4.32561 4.10197 4.55347 -.258519.240583-.492236.637643-.574275 1.23812 -.516085.239605-1.82871.648401-2.61381-.76967 -.492236-.87627-1.38227-.948641-1.38227-.948641C1.91075 12.8076 2.73115 13.3837 2.73115 13.3837c.585723.276768.994965 1.3457.994965 1.3457 .527532 1.64594 3.03546 1.09338 3.03546 1.09338 0 .768692.0124012 1.5012.0124012 1.71733 0 .241561-.164079.529087-.621019.444981C2.57851 16.7596-5e-07 13.2996-5e-07 9.22724 -5e-07 4.13294 4.03137 0 8.99952 0 13.9686 0 18 4.13294 18 9.22724c0 4.07231-2.57852 7.5324-6.15295 8.75781"/></svg>