<svg width="100" height="100" viewBox="0 0 100 100" xmlns="http://www.w3.org/2000/svg"><path d="M80.667 14H19.315C16.381 14 14 16.325 14 19.188v61.617C14 83.672 16.381 86 19.315 86h61.352C83.603 86 86 83.672 86 80.805V19.188C86 16.325 83.603 14 80.667 14ZM35.354 75.354H24.67V40.995h10.684v34.359Zm-5.342-39.057c-3.423 0-6.19-2.774-6.19-6.194 0-3.415 2.767-6.189 6.19-6.189 3.415 0 6.189 2.774 6.189 6.189 0 3.42-2.774 6.194-6.189 6.194ZM75.35 75.354H64.683V58.646c0-3.986-.078-9.111-5.551-9.111 -5.558 0-6.405 4.341-6.405 8.822v16.998H42.052v-34.36h10.245v4.692h.146c1.426-2.7 4.91-5.549 10.106-5.549 10.806 0 12.802 7.114 12.802 16.369v18.847Z"/></svg>