<svg width="100" height="100" viewBox="0 0 100 100" xmlns="http://www.w3.org/2000/svg"><g fill-rule="evenodd"><path d="M74.121 14H25.88C19.351 14 14 19.351 14 25.88v48.24C14 80.65 19.351 86 25.88 86h48.241C80.65 86 86 80.65 86 74.12V25.88C86 19.351 80.65 14 74.121 14Zm-2.3 43.982c-.044 7.649-6.264 13.913-13.928 13.913H41.886c-7.664 0-13.928-6.264-13.928-13.913V41.725c0-7.665 6.264-13.943 13.928-13.943h9.743c3.596.428 8.829 3.508 10.759 7.605 .531 1.149.81 1.326 1.253 4.73 .236 1.754.354 3.051 1.135 3.773 1.105 1.002 5.203.324 6.014.958l.619.486 .368.767 .133.619 -.089 11.262Z"/><path d="M42.063 44.495h7.724c1.474 0 2.668-1.209 2.668-2.668s-1.194-2.653-2.668-2.653h-7.724c-1.474 0-2.667 1.194-2.667 2.653s1.193 2.668 2.667 2.668Z"/><path d="M57.76 55.122H42.063c-1.474 0-2.667 1.193-2.667 2.653 0 1.443 1.194 2.652 2.667 2.652H57.76c1.459 0 2.653-1.209 2.653-2.652 .001-1.46-1.194-2.653-2.653-2.653Z"/></g></svg>