<svg width="100" height="100" viewBox="0 0 100 100" xmlns="http://www.w3.org/2000/svg"><g><path d="M81.232 15.138H18.769c-1.882 0-3.407 1.525-3.407 3.407v3.143c0 1.881 1.525 3.407 3.407 3.407h62.463c1.881 0 3.407-1.525 3.407-3.407v-3.143c0-1.882-1.526-3.407-3.407-3.407Z"/><path d="M76.224 41.611v0 -3.143 0c0-1.882-1.525-3.407-3.407-3.407v0H27.183c-1.882 0-3.407 1.525-3.407 3.407v3.143c0 1.881 1.525 3.407 3.407 3.407h45.634v0c1.882-.001 3.407-1.526 3.407-3.407Z"/><path d="M77.81 74.905v0H22.176c-1.882 0-3.407 1.525-3.407 3.407v3.143c0 1.881 1.525 3.407 3.407 3.407H77.81v0c1.881 0 3.407-1.525 3.407-3.407h.015v-3.143h-.015c0-1.881-1.526-3.407-3.407-3.407Z"/><path d="M72.817 58.39c0-1.882-1.525-3.407-3.407-3.407v0 0H30.59c-1.882 0-3.407 1.525-3.407 3.407v3.143c0 1.881 1.525 3.407 3.407 3.407h38.82v0 0c1.881 0 3.407-1.525 3.407-3.407 0 0 0-.001 0-.001v-3.141l0-.001Z"/></g></svg>