<?xml version="1.0" encoding="UTF-8"?>
<svg id="a" data-name="Layer 1" xmlns="http://www.w3.org/2000/svg" width="24" height="24" viewBox="0 0 24 24">
  <path d="M12,3C7,3,3,7,3,12s4,9,9,9,9-4,9-9S17,3,12,3ZM15.326,10.589c-.051.099-.153.161-.264.161h-1.437v3.856c0,.164-.133.297-.297.297h-2.658c-.164,0-.297-.133-.297-.296v-3.856s-1.436,0-1.436,0c-.111,0-.213-.062-.264-.161-.051-.099-.043-.218.022-.308l3.052-4.294c.056-.078.145-.125.241-.125h0c.096,0,.185.046.241.124l3.072,4.294c.065.091.074.21.023.308Z"/>
</svg>