<?xml version="1.0" encoding="UTF-8"?>
<svg id="a" data-name="Layer 1" xmlns="http://www.w3.org/2000/svg" width="24" height="24" viewBox="0 0 24 24">
  <path d="M1.25,12c0,5.937,4.813,10.75,10.75,10.75s10.75-4.813,10.75-10.75S17.937,1.25,12,1.25,1.25,6.063,1.25,12ZM2.75,12c0-5.109,4.141-9.25,9.25-9.25s9.25,4.141,9.25,9.25-4.141,9.25-9.25,9.25S2.75,17.109,2.75,12Z"/>
  <path d="M9.119,10.728c0-.164.133-.297.297-.297h3.856s0-1.436,0-1.436c0-.111.062-.213.161-.264.099-.051.218-.043.308.022l4.294,3.052c.078.056.125.145.125.241h0c0,.096-.046.186-.124.242l-4.294,3.072c-.091.065-.21.074-.308.023-.099-.051-.161-.153-.161-.264v-1.437s-3.856,0-3.856,0c-.164,0-.297-.133-.297-.297v-2.658Z"/>
</svg>