<?xml version="1.0" encoding="UTF-8"?>
<svg id="a" data-name="Layer 1" xmlns="http://www.w3.org/2000/svg" width="24" height="24" viewBox="0 0 24 24">
  <path d="M12,1.25C6.063,1.25,1.25,6.063,1.25,12s4.813,10.75,10.75,10.75,10.75-4.813,10.75-10.75S17.937,1.25,12,1.25ZM12,21.25c-5.109,0-9.25-4.141-9.25-9.25S6.891,2.75,12,2.75s9.25,4.141,9.25,9.25-4.141,9.25-9.25,9.25Z"/>
  <path d="M14.881,13.386c0,.164-.133.297-.297.297h-3.856v1.437c0,.111-.062.213-.161.264-.099.051-.218.042-.308-.023l-4.294-3.072c-.078-.055-.124-.145-.124-.241h0c0-.097.047-.186.125-.242l4.294-3.052c.09-.064.209-.073.308-.022.098.05.161.152.161.264v1.436h3.856c.164,0,.297.133.297.297v2.658Z"/>
</svg>