<?xml version="1.0" encoding="UTF-8"?>
<svg id="a" data-name="Layer 1" xmlns="http://www.w3.org/2000/svg" width="24" height="24" viewBox="0 0 24 24">
  <path d="M1.25,12c0,5.937,4.813,10.75,10.75,10.75s10.75-4.813,10.75-10.75c0-5.937-4.813-10.75-10.75-10.75S1.25,6.063,1.25,12ZM21.25,12c0,5.109-4.141,9.25-9.25,9.25S2.75,17.109,2.75,12,6.891,2.75,12,2.75s9.25,4.141,9.25,9.25Z"/>
  <path d="M13.386,9.119c.164,0,.297.133.297.297v3.856s1.437,0,1.437,0c.111,0,.213.062.264.161.051.099.042.218-.023.308l-3.072,4.294c-.055.078-.145.124-.241.124h0c-.096,0-.186-.047-.241-.125l-3.052-4.294c-.064-.09-.073-.209-.022-.308.05-.098.152-.161.264-.161h1.436s0-3.856,0-3.856c0-.164.133-.297.297-.297h2.658Z"/>
</svg>