<?xml version="1.0" encoding="UTF-8"?>
<svg id="a" data-name="Layer 1" xmlns="http://www.w3.org/2000/svg" width="24" height="24" viewBox="0 0 24 24">
  <path d="M12,3C7,3,3,7,3,12s4,9,9,9,9-4,9-9S17,3,12,3ZM18.137,11.99c0,.096-.046.185-.124.241l-4.294,3.072c-.091.065-.21.074-.308.023-.099-.051-.161-.153-.161-.264v-1.437h-3.856c-.164,0-.297-.133-.297-.297v-2.658c0-.164.133-.297.296-.297h3.856s0-1.436,0-1.436c0-.111.062-.213.16-.264.099-.051.218-.043.308.022l4.294,3.052c.078.056.125.145.125.241h0Z"/>
</svg>