<svg width="100" height="100" viewBox="0 0 100 100" xmlns="http://www.w3.org/2000/svg"><path d="M71.782 64.059L57.807 50.085l14.011-14.011c.164-.141.314-.291.455-.455l.013-.013 -.001-.001c.632-.742 1.028-1.691 1.028-2.742 0-1.307-.603-2.461-1.531-3.241L52.156 9.995c-.779-.978-1.965-1.617-3.312-1.617 -2.347 0-4.25 1.903-4.25 4.25 0 .407.076.793.183 1.167v23.258L34.052 26.329c-.777-.842-1.879-1.377-3.115-1.377 -2.347 0-4.25 1.903-4.25 4.25 0 1.238.538 2.342 1.383 3.119l16.706 16.706v2.115L27.953 67.966c-.013.012-.025.025-.038.038l-.032.032 .003.003c-.739.765-1.199 1.802-1.199 2.949 0 2.347 1.903 4.25 4.25 4.25 1.289 0 2.429-.586 3.209-1.491l10.63-10.63v24.099c-.002.053-.016.102-.016.156 0 .054.014.103.016.156v.022h.002c.095 2.262 1.945 4.072 4.232 4.072 1.259 0 2.378-.558 3.156-1.428l.004.004 19.862-19.863c.021-.021.043-.042.064-.064l.19-.19 -.018-.018c.642-.744 1.045-1.702 1.045-2.762 -.001-1.308-.603-2.462-1.531-3.242Zm-8.711 3.263l-9.828 9.828V57.494l9.828 9.828Zm-9.828-24.647V23.057l9.809 9.809 -9.809 9.809Z"/></svg>