<svg width="50" height="50" viewBox="0 0 50 50" xmlns="http://www.w3.org/2000/svg"><g fill-rule="evenodd"><path d="M13.1152 5.2971l0 35.2215 7.13298-4.63014 7.12823 4.63014 0-35.2215Z"/><path d="M29.7537 17.1261l7.1306 0 0-2.37687 -7.1306 0Z"/><path d="M29.7537 31.3873l7.1306 0 0-2.37687 -7.1306 0Z"/><path d="M29.7537 38.5179l7.1306 0 0-2.37687 -7.1306 0Z"/><path d="M29.7537 24.2567l7.1306 0 0-2.37687 -7.1306 0Z"/><path d="M38.5481 7.61859H29.7537v2.37687h8.79441c.392183 0 .71306.320877.71306.71306v31.85c0 .392183-.320877.71306-.71306.71306H11.4519c-.392183 0-.71306-.320877-.71306-.71306v-31.85c0-.392183.320877-.71306.71306-.71306h15.925V7.61859h-15.925c-1.70421 0-3.08993 1.38571-3.08993 3.08993v31.85c0 1.70421 1.38571 3.08993 3.08993 3.08993h27.0963c1.70421 0 3.08993-1.38571 3.08993-3.08993v-31.85c0-1.70421-1.38571-3.08993-3.08993-3.08993"/></g></svg>