<svg width="100" height="100" viewBox="0 0 100 100" xmlns="http://www.w3.org/2000/svg"><g><path d="M31.102 17.001a6.978 6.978 0 1 0 0 13.956 6.978 6.978 0 1 0 0-13.956Z"/><path d="M68.898 17.001a6.978 6.978 0 1 0 0 13.956 6.978 6.978 0 1 0 0-13.956Z"/><path d="M31.102 43.022a6.978 6.978 0 1 0 0 13.956 6.978 6.978 0 1 0 0-13.956Z"/><path d="M68.898 43.022a6.978 6.978 0 1 0 0 13.956 6.978 6.978 0 1 0 0-13.956Z"/><path d="M31.102 69.042a6.978 6.978 0 1 0 0 13.956 6.978 6.978 0 1 0 0-13.956Z"/><path d="M68.898 69.042a6.978 6.978 0 1 0 0 13.956 6.978 6.978 0 1 0 0-13.956Z"/></g></svg>