<?xml version="1.0" standalone="no"?>
<!DOCTYPE svg PUBLIC "-//W3C//DTD SVG 20010904//EN"
 "http://www.w3.org/TR/2001/REC-SVG-20010904/DTD/svg10.dtd">
<svg version="1.0" xmlns="http://www.w3.org/2000/svg"
 width="1600.000000pt" height="1600.000000pt" viewBox="0 0 1600.000000 1600.000000"
 preserveAspectRatio="xMidYMid meet">
<g transform="translate(0.000000,1600.000000) scale(0.100000,-0.100000)"
fill="#000000" stroke="none">
<path d="M7692 14660 c-1499 -99 -2630 -793 -3417 -2095 -572 -945 -925 -2289
-925 -3520 0 -600 74 -864 301 -1081 163 -155 397 -261 703 -320 219 -42 258
-52 336 -91 103 -52 197 -147 285 -288 466 -752 1114 -1277 2132 -1731 620
-276 1101 -272 1753 17 1022 453 1651 948 2147 1689 171 257 274 324 578 380
512 95 824 295 960 618 71 169 94 320 102 677 27 1207 -293 2538 -844 3515
-752 1331 -1866 2076 -3313 2215 -201 19 -617 27 -798 15z m-819 -2786 c173
-40 444 -172 1092 -534 1241 -692 1874 -981 2610 -1192 115 -33 230 -70 255
-83 387 -196 511 -768 240 -1106 -93 -115 -182 -179 -368 -262 -262 -118 -380
-221 -512 -452 -347 -606 -776 -984 -1530 -1349 -374 -180 -477 -215 -656
-223 -204 -9 -305 20 -659 191 -778 376 -1192 755 -1555 1421 -107 197 -249
319 -492 426 -215 94 -334 195 -413 349 -147 288 -86 615 159 854 71 68 109
97 299 221 234 152 431 397 697 865 67 118 152 267 188 329 189 330 334 495
480 547 49 18 80 17 165 -2z"/>
<path d="M4555 5200 c-68 -22 -203 -105 -388 -237 -660 -474 -1269 -1134
-1684 -1828 -300 -499 -483 -971 -483 -1239 1 -282 161 -477 445 -543 77 -17
274 -18 5560 -18 5480 0 5480 0 5565 22 298 79 442 276 427 583 -21 404 -393
1152 -891 1793 -421 541 -984 1059 -1508 1390 -278 175 -553 113 -764 -173
-23 -30 -257 -401 -520 -825 -443 -713 -484 -776 -559 -851 -223 -225 -575
-257 -837 -76 -24 16 -153 127 -288 246 -261 231 -329 276 -460 312 -87 24
-253 24 -339 0 -145 -39 -192 -72 -506 -351 -211 -188 -252 -220 -340 -262
-262 -124 -583 -56 -783 168 -17 20 -245 378 -505 795 -260 418 -492 787 -516
822 -161 237 -404 342 -626 272z"/>
</g>
</svg>
