<?xml version="1.0" standalone="no"?>
<!DOCTYPE svg PUBLIC "-//W3C//DTD SVG 20010904//EN"
 "http://www.w3.org/TR/2001/REC-SVG-20010904/DTD/svg10.dtd">
<svg version="1.0" xmlns="http://www.w3.org/2000/svg"
 width="1600.000000pt" height="1600.000000pt" viewBox="0 0 1600.000000 1600.000000"
 preserveAspectRatio="xMidYMid meet">
<g transform="translate(0.000000,1600.000000) scale(0.100000,-0.100000)"
fill="#000000" stroke="none">
<path d="M7780 14663 c-1934 -99 -3226 -1048 -3643 -2678 -105 -409 -145 -739
-156 -1300 -9 -414 -11 -423 -124 -621 -192 -337 -268 -653 -245 -1021 33
-535 296 -985 763 -1306 218 -150 356 -298 501 -537 419 -694 1027 -1172 2119
-1667 390 -177 829 -236 1315 -177 336 41 574 126 1095 390 801 405 1316 829
1676 1379 54 82 120 181 146 219 67 96 227 252 335 328 50 35 127 89 170 121
688 503 894 1420 491 2187 -146 277 -179 345 -192 395 -8 34 -15 177 -21 435
-8 370 -19 523 -55 760 -280 1858 -1602 2972 -3670 3090 -156 9 -370 10 -505
3z m861 -2723 c489 -25 908 -84 1079 -152 211 -83 392 -252 498 -463 106 -214
245 -741 307 -1171 36 -244 44 -262 171 -354 224 -163 335 -366 335 -617 1
-328 -209 -577 -571 -677 -86 -24 -117 -40 -168 -90 -52 -49 -59 -61 -107
-191 -196 -524 -591 -904 -1330 -1280 -457 -232 -591 -274 -875 -275 -290 0
-462 53 -880 273 -712 373 -1051 715 -1266 1276 -77 202 -123 245 -333 315
-332 110 -514 359 -498 681 11 231 99 383 345 593 86 74 98 103 127 300 54
363 129 677 261 1087 108 334 229 480 478 576 207 80 684 138 1401 172 165 8
847 6 1026 -3z"/>
<path d="M4585 5153 c-103 -14 -310 -85 -515 -175 -1238 -545 -2103 -1754
-2067 -2888 10 -301 58 -454 184 -579 102 -101 214 -148 408 -171 125 -14
10685 -14 10810 0 426 49 595 280 595 815 0 1196 -990 2447 -2310 2920 -375
135 -616 109 -810 -85 -68 -68 -121 -149 -565 -863 -509 -819 -535 -856 -649
-933 -188 -128 -446 -148 -651 -50 -87 41 -128 73 -340 261 -313 278 -361 312
-506 351 -88 24 -253 24 -339 -1 -135 -38 -199 -81 -460 -311 -135 -119 -264
-230 -288 -246 -263 -181 -614 -149 -837 76 -75 75 -116 138 -565 860 -316
507 -503 800 -538 837 -137 149 -333 213 -557 182z"/>
</g>
</svg>
