<svg width="100" height="100" viewBox="0 0 100 100" xmlns="http://www.w3.org/2000/svg"><g><path d="M50.041 43.743a9.513 9.513 0 1 0 0 19.026 9.513 9.513 0 1 0 0-19.026Z"/><path d="M86.778 24.2v-.037H70.111v-2.792c0-2.056-1.667-3.722-3.722-3.722H33.611c-2.056 0-3.723 1.666-3.723 3.722v2.792H13.221v.037c-2.056 0-3.721 1.666-3.721 3.722v50.669c0 2.056 1.665 3.722 3.721 3.722v.037h73.557v-.037c2.055 0 3.722-1.667 3.722-3.722V27.922c0-2.056-1.667-3.722-3.722-3.722ZM50.247 72.542c-10.651 0-19.286-8.634-19.286-19.286 0-10.651 8.635-19.286 19.286-19.286 10.652 0 19.287 8.635 19.287 19.286 .001 10.652-8.635 19.286-19.287 19.286Zm35.266-33.397h-14.74v-9.957h14.739v9.957Z"/></g></svg>