<svg width="18" height="18" viewBox="0 0 18 18" xmlns="http://www.w3.org/2000/svg"><path fill-rule="evenodd" d="M9.23444 13.5684L7.83097 14.9719c-.186411.186411-.443689.28809-.702508.28809 -.257278 0-.516097-.101679-.700968-.28809L5.02402 13.5684 1.28809 9.83251C1.10322 9.6461 1 9.38882 1 9.13154c0-.258819.103219-.517638.28809-.702508l1.40348-1.40348c.18487-.187952.443689-.289631.700968-.289631 .258819 0 .516097.101679.702508.289631l3.03342 3.0442 6.77089-6.78013C14.0858 3.10476 14.343 3 14.6019 3c.257278 0 .516097.10476.700968.289631l1.40348 1.40348c.184871.186411.28809.443689.28809.700968 0 .258819-.103219.517638-.28809.702508L9.23444 13.5684Z"/></svg>