<svg width="18" height="18" viewBox="0 0 18 18" xmlns="http://www.w3.org/2000/svg"><path fill-rule="evenodd" d="M9 0C4 0 0 4 0 9c0 5 4 9 9 9s9-4 9-9 -4-9-9-9v0ZM6.3 5.6c.7 0 1.3.6 1.3 1.3 0 .7-.6 1.3-1.3 1.3C5.6 8.2 5 7.7 5 7c0-.8.6-1.4 1.3-1.4v0Zm6.5 5.9c-.5 1.7-2.1 2.8-3.8 2.8 -1.8 0-3.3-1.1-3.8-2.8 -.1-.4.1-.7.4-.8 .3-.1.7.1.8.4C6.8 12.2 7.8 13 9 13c1.2 0 2.2-.8 2.5-1.9 .1-.4.5-.6.8-.4 .4.1.6.4.5.8v0Zm-1.1-3.2c-.7 0-1.3-.6-1.3-1.3 0-.7.6-1.3 1.3-1.3 .7 0 1.3.5 1.3 1.3 0 .7-.6 1.3-1.3 1.3v0Z"/></svg>