<svg width="18" height="18" viewBox="0 0 18 18" xmlns="http://www.w3.org/2000/svg"><path fill-rule="evenodd" d="M9 0C4.07368 0 0 4.07368 0 9c0 4.92632 4.07368 9 9 9s9-4.07368 9-9c0-4.92632-4.07368-9-9-9v0ZM7.86316 11.6526c-.473684.28421-.947369.378947-1.51579.378947 -.852631 0-1.61053-.28421-2.17895-.757895C3.6 10.7053 3.31579 9.94737 3.31579 9c0-.947368.284211-1.70526.852632-2.17895C4.73684 6.25263 5.4 5.96842 6.25263 5.96842c1.23158 0 2.17895.473684 2.65263 1.42105l-1.32632.663158c-.094736-.28421-.28421-.473684-.473684-.568421 -.189474-.189474-.378947-.189474-.568421-.189474 -.852631 0-1.32632.568421-1.32632 1.70526 0 .568421.094737.947368.378948 1.23158 .189473.284211.568421.473684 1.0421.473684 .568421 0 1.0421-.284211 1.23158-.852632l1.23158.568421c-.378948.568421-.757895.947368-1.23158 1.23158v0Zm5.68421 0c-.473684.28421-.947368.378947-1.51579.378947 -.947368 0-1.61053-.28421-2.17895-.757895C9.28421 10.7053 9 9.94737 9 9c0-.947368.284211-1.70526.852632-2.17895 .568421-.568421 1.23158-.852632 2.08421-.852632 1.23158 0 2.17895.473684 2.65263 1.42105l-1.32632.663158c-.189474-.28421-.284211-.473684-.568421-.568421C12.5053 7.38947 12.3158 7.29474 12.1263 7.29474 11.2737 7.29474 10.8 7.86316 10.8 9c0 .568421.094737.947368.378947 1.23158 .189474.284211.568421.473684 1.04211.473684 .568421 0 1.0421-.284211 1.23158-.852632l1.23158.568421C14.4 10.9895 14.0211 11.3684 13.5474 11.6526v0Z"/></svg>