<svg width="18" height="18" viewBox="0 0 18 18" xmlns="http://www.w3.org/2000/svg"><g fill-rule="evenodd"><path d="M8.98791.0874687c-2.44181 0-4.59056.903656-6.25106 2.58834C1.02741 4.40944.0995628 6.65606.0995628 9c0 2.36869.903375 4.56637 2.61281 6.27553C4.42181 16.985 6.64369 17.9128 8.98791 17.9128c2.34394 0 4.61503-.927844 6.37313-2.66147C17.0215 13.6153 17.9004 11.4421 17.9004 9c0-2.41734-.878906-4.61475-2.56388-6.29972C13.6274.990844 11.4297.0874689 8.98791.0874689ZM9.01209 1.69903c2.0025 0 3.78506.756844 5.17669 2.14903C15.5562 5.21522 16.2886 7.02225 16.2886 9c0 2.00222-.708188 3.76059-2.07534 5.10356 -1.44084 1.41609-3.29653 2.17322-5.20116 2.17322 -1.92881 0-3.73584-.756844-5.12775-2.14903C2.49244 12.7358 1.71112 10.9046 1.71112 9c0-1.92881.781312-3.76003 2.17322-5.17669 1.36744-1.39162 3.12553-2.12428 5.12775-2.12428Z"/><path d="M8.89734 7.51894c-.503438-.918-1.36238-1.28334-2.35941-1.28334 -1.45125 0-2.60634 1.02656-2.60634 2.76413 0 1.76709 1.08591 2.76441 2.65556 2.76441 1.00716 0 1.86609-.552938 2.33972-1.39191L7.82128 9.80944c-.246938.592031-.622125.770062-1.09575.770062 -.819562 0-1.19475-.681188-1.19475-1.57978 0-.898031.316125-1.5795 1.19475-1.5795 .236813 0 .710719.12825.987188.720844l1.18462-.622125Zm5.14153 0c-.503438-.918-1.36238-1.28334-2.35941-1.28334 -1.45125 0-2.60634 1.02656-2.60634 2.76413 0 1.76709 1.08591 2.76441 2.65556 2.76441 1.00716 0 1.86609-.552938 2.33972-1.39191L12.9628 9.80944c-.246938.592031-.622125.770062-1.09575.770062 -.819562 0-1.19475-.681188-1.19475-1.57978 0-.898031.316125-1.5795 1.19475-1.5795 .236813 0 .710719.12825.987188.720844l1.18462-.622125Z"/></g></svg>