<svg width="100" height="100" viewBox="0 0 100 100" xmlns="http://www.w3.org/2000/svg"><g><path d="M86.941 26.224c0-1.469-1.191-2.659-2.66-2.659 -.036 0-.07.009-.106.011H15.949c-.078-.007-.153-.023-.233-.023 -1.467 0-2.658 1.19-2.658 2.659 0 .124.02.243.037.363v7.009h73.846v-7.243h-.011c.001-.041.011-.078.011-.117Z"/><path d="M13.095 73.78v0c.001.003 0 .006 0 .01 0 1.468 1.191 2.658 2.659 2.658 .056 0 .109-.013.164-.017v.002h68.459v-.02c1.419-.051 2.554-1.205 2.563-2.633h.002V43.582H13.095V73.78Z"/></g></svg>