<svg width="100" height="100" viewBox="0 0 100 100" xmlns="http://www.w3.org/2000/svg"><path d="M88.231 71.062s-.001 0-.001 0h-7.263V23.959h-.051c.003-.07.021-.135.021-.206 0-2.635-2.137-4.772-4.772-4.772v0H28.99v-7.068 0c0-1.487-1.205-2.692-2.693-2.693h-4.571c-1.488 0-2.693 1.205-2.693 2.693 0 0 0 0 0 .001v7.067H11.77s-.001 0-.001 0c-1.487 0-2.692 1.205-2.693 2.693v4.571c0 1.488 1.205 2.693 2.693 2.693 0 0 .001 0 .001 0h7.263v47.103h.052c-.003.07-.021.135-.021.206 0 2.635 2.137 4.772 4.772 4.772v0H71.01v7.068c0 1.487 1.205 2.692 2.693 2.693h4.571c1.488 0 2.693-1.205 2.693-2.693v-7.068h7.263s0 0 .001 0c1.487 0 2.692-1.205 2.693-2.693v-4.571c-.001-1.488-1.205-2.693-2.693-2.693Zm-59.241.001V28.937h42.02v42.125H28.99Z"/></svg>