<svg width="100" height="100" viewBox="0 0 100 100" xmlns="http://www.w3.org/2000/svg"><g><path d="M32.948 24.348h-.011c-.057-2.327-1.971-4.133-4.3-4.165v-.006h-15.69v.011c-2.307.057-4.067 1.852-4.119 4.161h-.01v51.2h.008c.043 2.3 1.838 4.089 4.121 4.178v.097h15.69v0c2.401-.001 4.311-1.875 4.311-4.274 0 0 0-.001 0-.001v0V24.348ZM20.882 74.836c-3.443 0-6.233-2.792-6.233-6.234 0-3.443 2.791-6.234 6.233-6.234 3.444 0 6.235 2.791 6.235 6.234s-2.791 6.234-6.235 6.234Zm7.078-22.41H13.805V25.164H27.96v27.262Z"/><path d="M62.065 24.348h-.011c-.057-2.327-1.971-4.133-4.3-4.165v-.006h-15.69v.011c-2.307.057-4.067 1.852-4.119 4.161h-.01v51.2h.008c.043 2.3 1.838 4.089 4.121 4.178v.097h15.69v0c2.401-.001 4.311-1.875 4.311-4.274 0 0 0-.001 0-.001v0V24.348ZM49.999 74.836c-3.443 0-6.233-2.792-6.233-6.234 0-3.443 2.791-6.234 6.233-6.234 3.444 0 6.235 2.791 6.235 6.234 -1e-07 3.443-2.791 6.234-6.235 6.234Zm7.078-22.41H42.923V25.164h14.155v27.262Z"/><path d="M91.182 24.348h-.011c-.057-2.327-1.971-4.133-4.3-4.165v-.006h-15.69v.011c-2.307.057-4.067 1.852-4.119 4.161h-.01v51.2h.008c.043 2.3 1.838 4.089 4.121 4.178v.097h15.69v0c2.401-.001 4.311-1.875 4.311-4.274 0 0 0-.001 0-.001v0V24.348ZM79.117 74.836c-3.443 0-6.233-2.792-6.233-6.234 0-3.443 2.791-6.234 6.233-6.234 3.444 0 6.235 2.791 6.235 6.234 -1e-07 3.443-2.792 6.234-6.235 6.234Zm7.078-22.41H72.04V25.164h14.155v27.262Z"/></g></svg>