<svg width="18" height="18" viewBox="0 0 18 18" xmlns="http://www.w3.org/2000/svg"><path fill-rule="evenodd" d="M13.8998 7.70009c.866608.0445617 1.59992.383465 2.20033 1.01671C16.6998 9.35004 17 10.1115 17 11c0 .911561-.32835 1.69491-.983094 2.35004 -.655917.655917-1.43927.983094-2.35044.983094H5c-1.11131 0-2.0557-.388547-2.8328-1.16642C1.38855 12.3888 1 11.4448 1 10.3335c0-1.02218.344376-1.91107 1.03352-2.66667 .688361-.755204 1.53308-1.1887 2.53337-1.30011C4.98866 5.5451 5.59455 4.88918 6.38376 4.40018 7.1718 3.91156 8.04427 3.66686 9 3.66686c1.20043 0 2.25506.383074 3.16701 1.15 .910388.76654 1.48813 1.72813 1.73283 2.88322v0Zm-5.96658 1.9486H5.66647L9 12.9818l3.33353-3.33314H10.0667V7.11531H7.93325v2.53337 0Z"/></svg>