<svg width="100" height="100" viewBox="0 0 100 100" xmlns="http://www.w3.org/2000/svg"><g fill="#231F20"><path d="M77.741 10.79c-.001 0-.001 0-.002 0v0H4.36v0c-1.391.001-2.519 1.129-2.519 2.521V86.69c0 1.391 1.128 2.52 2.519 2.521v0h.001s0 0 .001 0 0 0 .001 0h73.376v0c.001 0 .001 0 .002 0 1.393 0 2.521-1.129 2.521-2.521V13.311c0-1.393-1.128-2.521-2.521-2.521ZM11.862 20.809h58.381V79.19H11.862V20.809Z"/><path d="M97.524 63.966h-2.882v-7.737c0-.33-.266-.596-.595-.596h-5.333c-.329 0-.595.266-.595.596v7.736h-2.883c-.223.001-.427.126-.529.324 -.103.197-.085.437.045.618l6.164 8.616c.111.156.292.248.483.248 .001 0 .001 0 .001 0 .193 0 .373-.094.484-.25l6.125-8.615c.129-.182.146-.421.043-.619 -.1-.197-.305-.322-.528-.321Z"/><path d="M85.276 36.035h2.882v7.737c0 .329.267.595.596.596l5.333-.001c.329 0 .596-.266.595-.595v-7.737h2.883c.223 0 .427-.125.529-.323 .102-.198.085-.438-.045-.618l-6.164-8.615c-.112-.157-.292-.25-.483-.25 -.001 0-.001 0-.001 0 -.193.002-.373.094-.485.252l-6.124 8.614c-.129.181-.146.42-.044.618 .1.197.305.322.528.322Z"/><path d="M27.998 27.038a4.955 4.955 0 1 0 0 9.91 4.955 4.955 0 1 0 0-9.91Z"/><path d="M37.38 38.28v-.024H19.628v.017c-1.283 0-2.323 1.036-2.332 2.316h-.002v14.04h.023c-.001.535.202 1.07.61 1.478 .813.814 2.133.814 2.947 0 .407-.408.61-.943.609-1.478h.005V44.93v-.103h.006c.015-.354.302-.638.66-.638 .358 0 .646.283.661.638h.006v.103 6.254 19.344c.002 1.345 1.091 2.434 2.437 2.434 1.345 0 2.437-1.091 2.437-2.437V57.584h.018c0-.373.302-.675.675-.675 .373 0 .675.302.675.675h.017v12.941c0 1.346 1.092 2.437 2.437 2.437 1.346 0 2.437-1.091 2.437-2.437V57.584v-6.399 -6.254 -.103c0-.369.298-.667.666-.667 .367 0 .665.298.665.667v.103 9.699h.023c-.001.535.202 1.07.61 1.478 .814.814 2.133.814 2.947 0 .408-.408.611-.943.61-1.478h.004V40.59c-.002-1.207-.923-2.189-2.099-2.31Z"/><path d="M53.331 27.038a4.955 4.955 0 1 0 0 9.91 4.955 4.955 0 1 0 0-9.91Z"/><path d="M62.713 38.28v-.024H44.961v.017c-1.283 0-2.323 1.036-2.332 2.316h-.002v14.04h.023c-.001.535.202 1.07.61 1.478 .813.814 2.133.814 2.947 0 .407-.408.61-.943.609-1.478h.005V44.93v-.103h.006c.015-.354.302-.638.66-.638 .358 0 .646.283.661.638h.006v.103 6.254 19.344c.002 1.345 1.091 2.434 2.437 2.434 1.345 0 2.437-1.091 2.437-2.437V57.584h.018c0-.373.302-.675.675-.675 .373 0 .675.302.675.675h.017v12.941c0 1.346 1.092 2.437 2.437 2.437 1.346 0 2.437-1.091 2.437-2.437V57.584v-6.399 -6.254 -.103c0-.369.298-.667.666-.667 .367 0 .665.298.665.667v.103 9.699h.023c-.001.535.202 1.07.61 1.478 .814.814 2.133.814 2.947 0 .408-.408.611-.943.61-1.478h.004V40.59c-.003-1.207-.923-2.189-2.099-2.31Z"/></g></svg>