<svg width="18" height="18" viewBox="0 0 18 18" xmlns="http://www.w3.org/2000/svg"><path fill-rule="evenodd" d="M9 18c4.97056 0 9-4.02944 9-9s-4.02944-9-9-9C4.02944 0 0 4.02944 0 9c0 4.97056 4.02944 9 9 9ZM14.6842 7.414c-.19032.209352-.406016.393328-.634399.551927 -1.05945.716871-2.12524 1.44009-3.15931 2.18868 -.532895.393328-1.19267.875471-1.88417.875471H9 8.99366c-.691495 0-1.35127-.482143-1.88417-.875471C6.07542 9.39967 5.00963 8.6828 3.95653 7.96593 3.7218 7.80733 3.5061 7.62335 3.31578 7.414v5.03713c0 .558271.456767 1.01504 1.01504 1.01504h9.33836c.558271 0 1.01504-.456767 1.01504-1.01504V7.414Zm0-1.86513c0-.558271-.463111-1.01504-1.01504-1.01504H4.33082c-.678807 0-1.01504.532895-1.01504 1.15461 0 .577303.640743 1.29417 1.09117 1.59869 .983319.685151 1.97933 1.3703 2.96264 2.0618 .41236.28548 1.1102.869127 1.62406.869127H9h.006344c.513863 0 1.2117-.583647 1.62406-.869127 .983319-.691495 1.97933-1.37665 2.96899-2.0618 .558271-.386984 1.08482-1.02773 1.08482-1.73825Z"/></svg>