<svg width="100" height="100" viewBox="0 0 100 100" xmlns="http://www.w3.org/2000/svg"><g><path d="M84.448 47.672L67.712 30.936l-.116.116c-4.632-4.325-10.847-6.977-17.685-6.977 -7.679 0-14.575 3.341-19.322 8.646L15.013 48.298l.012.012c-.414.472-.673 1.083-.673 1.76 0 .844.398 1.588 1.009 2.079l16.896 16.895 .035-.035c4.625 4.289 10.815 6.915 17.62 6.915 7.67 0 14.559-3.333 19.305-8.627l.062.062L84.758 51.88c.065-.059.126-.12.185-.185l.001-.001v0c.431-.476.7-1.1.7-1.792 .001-.93-.475-1.749-1.196-2.23ZM49.912 67.567c-9.702 0-17.567-7.865-17.567-17.567 0-9.701 7.865-17.566 17.567-17.566s17.568 7.865 17.568 17.566c0 9.702-7.866 17.567-17.568 17.567Z"/><path d="M49.99 41.565a8.512 8.512 0 1 0 0 17.024 8.512 8.512 0 1 0 0-17.024Z"/></g></svg>