<?xml version="1.0" standalone="no"?>
<!DOCTYPE svg PUBLIC "-//W3C//DTD SVG 20010904//EN"
 "http://www.w3.org/TR/2001/REC-SVG-20010904/DTD/svg10.dtd">
<svg version="1.0" xmlns="http://www.w3.org/2000/svg"
 width="1600.000000pt" height="1600.000000pt" viewBox="0 0 1600.000000 1600.000000"
 preserveAspectRatio="xMidYMid meet">
<g transform="translate(0.000000,1600.000000) scale(0.100000,-0.100000)"
fill="#000000" stroke="none">
<path d="M8545 14656 c-146 -28 -269 -98 -372 -210 -112 -123 -159 -241 -173
-440 -5 -72 -17 -156 -26 -186 -51 -174 -182 -334 -336 -409 -169 -83 56 -75
-2328 -81 -2125 -5 -2125 -5 -2183 -27 -229 -88 -387 -260 -443 -483 -22 -88
-15 -269 14 -360 82 -255 305 -426 596 -460 241 -28 408 -126 528 -309 114
-174 127 -321 69 -766 -130 -1000 -352 -1884 -675 -2682 -295 -731 -686 -1402
-1052 -1807 -267 -295 -194 -787 149 -1000 155 -96 221 -106 713 -106 357 0
398 -2 468 -20 298 -76 505 -343 506 -652 1 -280 191 -534 470 -631 65 -22 65
-22 1170 -27 1105 -5 1105 -5 1160 -31 127 -60 195 -165 195 -304 0 -60 -6
-92 -21 -125 -11 -25 -216 -306 -455 -625 -356 -474 -441 -594 -466 -655 -184
-440 137 -923 612 -924 174 0 318 54 440 166 50 46 222 268 650 838 595 792
606 805 710 857 150 75 360 50 497 -59 23 -18 286 -358 623 -807 320 -427 604
-796 631 -821 427 -393 1114 -91 1114 490 0 223 -11 242 -519 919 -233 310
-434 587 -447 615 -77 171 1 362 181 443 37 17 110 18 1145 23 1105 5 1105 5
1185 33 203 72 349 217 423 419 27 73 27 73 32 3528 5 3257 6 3458 23 3515 89
306 313 480 648 504 205 15 328 64 453 182 344 321 256 886 -169 1089 -133 64
9 60 -2230 60 -1194 0 -2074 4 -2121 9 -335 39 -566 281 -595 621 -20 226 -52
327 -144 446 -153 198 -410 296 -650 250z m3227 -2694 c73 -36 124 -87 160
-161 39 -78 30 -296 -33 -821 -173 -1447 -603 -2801 -1212 -3815 -220 -367
-279 -430 -448 -479 -50 -15 -321 -16 -2944 -14 -2890 3 -2890 3 -2937 25
-145 67 -226 234 -185 378 8 28 56 140 107 250 538 1164 876 2528 1000 4030
11 138 28 276 37 308 42 151 182 285 338 323 39 10 708 12 3050 11 3000 -2
3000 -2 3067 -35z"/>
</g>
</svg>
