<svg width="100" height="100" viewBox="0 0 100 100" xmlns="http://www.w3.org/2000/svg"><g><path d="M28.549 31.543a4.342 4.342 0 1 0 0 8.684 4.342 4.342 0 1 0 0-8.684Z"/><path d="M65.794 6.764a8.767 8.767 0 1 0 0 17.534 8.767 8.767 0 1 0 0-17.534Z"/><path d="M47.712 12.86a5.469 5.469 0 1 0 0 10.938 5.469 5.469 0 1 0 0-10.938Z"/><path d="M72.903 74.043c-1.387-2.237-2.202-4.867-2.202-7.693 0-2.464.616-4.782 1.692-6.82l-.034-.051c2.168-3.252 3.436-7.155 3.436-11.356 0-11.326-9.182-20.507-20.507-20.507 -11.326 0-20.507 9.181-20.507 20.507 0 2.212.36 4.338 1.009 6.335 .436 1.792 1.139 3.475 2.068 5.011l-.096.055 14.854 25.729c1.568 4.64 5.947 7.984 11.115 7.984 6.484 0 11.743-5.256 11.743-11.741 0-2.813-.992-5.394-2.643-7.416l.072-.037Z"/><path d="M36.161 22.351a4.342 4.342 0 1 0 0 8.684 4.342 4.342 0 1 0 0-8.684Z"/></g></svg>