<svg width="100" height="100" viewBox="0 0 100 100" xmlns="http://www.w3.org/2000/svg"><path d="M20.706 16.778l5.332 59.802 23.926 6.643 23.993-6.651 5.337-59.793H20.706ZM68.172 30.97l-.334 3.718 -.147 1.648h-.023H50h-.025 -10.351l.67 7.511h9.68H50h15.047 1.977l-.179 1.97 -1.724 19.311 -.11 1.238L50 70.526v0l-.034.011 -15.024-4.171 -1.027-11.517h3.393 3.969l.522 5.851 8.168 2.205 .007-.002v-.001l8.181-2.208 .851-9.512H50h-.025 -16.389L31.784 30.97l-.175-1.969h18.366H50h18.348l-.176 1.969Z"/></svg>