<?xml version="1.0" standalone="no"?>
<!DOCTYPE svg PUBLIC "-//W3C//DTD SVG 20010904//EN"
 "http://www.w3.org/TR/2001/REC-SVG-20010904/DTD/svg10.dtd">
<svg version="1.0" xmlns="http://www.w3.org/2000/svg"
 width="1600.000000pt" height="1600.000000pt" viewBox="0 0 1600.000000 1600.000000"
 preserveAspectRatio="xMidYMid meet">
<g transform="translate(0.000000,1600.000000) scale(0.100000,-0.100000)"
fill="#000000" stroke="none">
<path d="M7785 14663 c-27 -1 -120 -7 -205 -13 -2364 -168 -4400 -1997 -4825
-4335 -95 -521 -113 -1118 -49 -1635 147 -1191 698 -2306 1556 -3146 187 -184
314 -292 602 -515 383 -296 649 -695 760 -1139 14 -58 71 -418 126 -800 110
-769 118 -808 210 -997 187 -382 528 -643 957 -730 135 -28 2031 -28 2166 0
429 87 770 348 958 732 91 187 99 227 210 995 55 382 109 735 121 785 105 452
377 858 778 1165 944 723 1582 1604 1924 2656 238 736 315 1557 216 2329 -302
2360 -2156 4251 -4505 4594 -332 49 -731 70 -1000 54z m685 -1358 c1497 -184
2750 -1170 3280 -2580 268 -716 319 -1529 144 -2300 -260 -1144 -1053 -2142
-2119 -2669 -215 -107 -273 -126 -401 -133 -323 -18 -604 188 -684 503 -27
103 -29 613 -4 781 41 281 155 511 337 680 37 34 219 176 404 316 380 285 441
343 502 470 212 440 -83 936 -569 955 -224 9 -287 -21 -691 -326 -441 -332
-452 -337 -674 -336 -216 1 -225 5 -665 337 -403 304 -466 334 -690 325 -486
-19 -782 -516 -570 -955 62 -127 124 -185 503 -470 185 -140 367 -282 404
-316 182 -169 296 -399 337 -680 25 -168 23 -678 -4 -781 -90 -354 -453 -575
-800 -487 -267 67 -775 371 -1125 673 -1757 1515 -1854 4207 -211 5843 696
693 1564 1092 2541 1169 124 9 626 -3 755 -19z"/>
</g>
</svg>
