<svg width="100" height="100" viewBox="0 0 100 100" xmlns="http://www.w3.org/2000/svg"><g><path d="M81.232 15.138H18.769c-1.882 0-3.407 1.525-3.407 3.407v3.143c0 1.881 1.525 3.407 3.407 3.407h62.463c1.881 0 3.407-1.525 3.407-3.407v-3.143c0-1.882-1.526-3.407-3.407-3.407Z"/><path d="M81.232 74.905H18.769c-1.882 0-3.407 1.525-3.407 3.407v3.143c0 1.881 1.525 3.407 3.407 3.407h62.463c1.881 0 3.407-1.525 3.407-3.407v-3.143c0-1.881-1.526-3.407-3.407-3.407Z"/><path d="M84.639 58.39c0-1.882-1.525-3.407-3.407-3.407v0h-38.82c-1.882 0-3.407 1.525-3.407 3.407v3.143c0 1.881 1.525 3.406 3.407 3.406h38.82v0c1.881 0 3.407-1.525 3.407-3.406v-.001 -3.141 -.001Z"/><path d="M84.639 38.577c0-1.882-1.525-3.407-3.407-3.407v0h-38.82c-1.882 0-3.407 1.525-3.407 3.407v3.143c0 1.881 1.525 3.406 3.407 3.406h38.82v0c1.881 0 3.407-1.525 3.407-3.406 0 0 0-.001 0-.001v-3.141 -.001Z"/><path d="M15.93 57.847c.159 0 .302-.066.406-.172L28.763 50.5l-.014-.024c.169-.098.289-.274.289-.484 0-.232-.14-.431-.34-.519l.006-.01 -12.376-7.146c-.103-.101-.243-.164-.398-.164 -.308 0-.556.247-.565.553h-.003v14.573c-.001.314.254.568.568.568Z"/></g></svg>