<svg width="18" height="18" viewBox="0 0 18 18" xmlns="http://www.w3.org/2000/svg"><path fill-rule="evenodd" d="M9 0C4.02944 0 0 4.02944 0 9c0 4.97056 4.02944 9 9 9s9-4.02944 9-9 -4.02944-9-9-9v0Zm-.22161 1.99064c.838735 0 1.5187.679963 1.5187 1.5187 0 .838735-.679963 1.5187-1.5187 1.5187s-1.5187-.679963-1.5187-1.5187 .679963-1.5187 1.5187-1.5187v0Zm2.59885 13.6516H6.58239V14.2041L7.27157 14.1456c.37752-.0391173.611105-.247205.611105-.624988V8.09132c0-.221248-.0567184-.371071-.12811-.449207C7.68281 7.56401 7.53733 7.52499 7.35517 7.52499L6.66366 7.48587V5.88999h3.49453v2.2034 .431244 4.99803c0 .377783.192987.585904.570474.624988l.648577.0585937v1.43596Z"/></svg>