<svg width="18" height="18" viewBox="0 0 18 18" xmlns="http://www.w3.org/2000/svg"><path fill-rule="evenodd" d="M1.2 7.43875V1.17857h8.5632v2.88239l1.2.679643V.818322c0-.451786-.3732-.818322-.8332-.818322H.8332c-.46 0-.8332.366536-.8332.818321V7.799c0 .451786.3732.818321.8332.818321h5.1784l-.1772-1.17857H1.2Zm10.5079 2.34249L10.2423 7.6162l1.3112-.499714c.096-.0656072.1628-.162643.1836-.275786 .0432-.231786-.1588-.398357-.3532-.501286l-4.3052-2.43846c-.1512-.0667857-.27-.104893-.3564-.104893 -.1604 0-.2108.130429-.1544.452179l.732 4.86829c.0316.1705.1172.45925.3532.501286 .0256.0047142.0508.0066785.076.0066785 .0892 0 .1764-.0275.2516-.0777858l.9856-1.06229 1.4656 2.16425c.0332.04675.0888.0848571.1428.0942857 .0108.0019643.0216.00275.0328.00275 .0464 0 .0964-.0153215.1352-.0416429l.9088-.618357c.0484-.0322143.0864-.0876072.096-.140643 .01-.05225-.006-.117071-.0396-.163822Z" transform="translate(3 4)"/></svg>