<svg width="100" height="100" viewBox="0 0 100 100" xmlns="http://www.w3.org/2000/svg"><g fill="#231F20"><path d="M14.022 67.699h71.957c2.747 0 4.976-2.229 4.976-4.977V18.628c0-2.75-2.229-4.976-4.976-4.976H14.022c-2.747 0-4.976 2.226-4.976 4.976v44.094c-.001 2.748 2.228 4.977 4.976 4.977Zm4.976-44.095h62.005v34.142H18.998V23.604Z"/><path d="M95.325 72.686H4.675c-1.267 0-2.294 1.027-2.294 2.294v5.555c0 .58.218 1.135.609 1.559l3.25 3.518c.433.466 1.045.735 1.684.735h83.915c.612 0 1.198-.245 1.631-.681l3.485-3.519c.424-.43.664-1.01.664-1.613V74.98c-1e-07-1.266-1.028-2.294-2.294-2.294Zm-36.656 7.969c0 .28-.185.507-.415.507H41.746c-.23 0-.415-.227-.415-.507v-2.264c0-.28.185-.504.415-.504h16.508c.23 0 .415.224.415.504v2.264Z"/></g></svg>