<svg width="100" height="100" viewBox="0 0 100 100" xmlns="http://www.w3.org/2000/svg"><g fill="#231F20"><path d="M27.725 30.515h44.55v23.113h-44.55Z"/><path d="M28.793 58.615h11.074v10.87H28.793Z"/><path d="M60.915 58.615h11.074v10.87H60.915Z"/><path d="M44.854 58.615h11.074v10.87H44.854Z"/><path d="M82.69 15.588v0H17.311h-.001c-2.491 0-4.512 2.02-4.512 4.512h-.001v60.067h.028c.14 2.366 2.085 4.246 4.485 4.246v0 0h65.38c2.401 0 4.344-1.88 4.484-4.246h.027V20.1c.001-2.493-2.019-4.512-4.511-4.512Zm-5.428 58.885H22.738V25.527h54.525v48.946Z"/></g></svg>