<svg width="100" height="100" viewBox="0 0 100 100" xmlns="http://www.w3.org/2000/svg"><g><path d="M80.182 67.457v0l-35.4-.001v.001c-.003 0-.006-.001-.009-.001 -1.253 0-2.269 1.017-2.269 2.269 0 .042.01.08.012.121V80.18h.011c0 1.248 1.008 2.26 2.254 2.268v.001h35.4v-.002c1.246-.008 2.254-1.02 2.254-2.268V69.825c.002-.034.01-.067.01-.101 .001-1.25-1.012-2.264-2.263-2.267Z"/><path d="M30.278 67.454v0H19.823v0h-.001c-1.253 0-2.269 1.017-2.269 2.269v0 0 10.454 0c0 1.253 1.016 2.269 2.268 2.269h.001v0h10.454v0c1.253 0 2.269-1.016 2.269-2.269v0V69.723v0 0c.002-1.252-1.014-2.269-2.267-2.269Z"/><path d="M80.182 42.467v0l-35.4-.001v.001c-.003 0-.006-.001-.009-.001 -1.253 0-2.269 1.017-2.269 2.269 0 .042.01.08.012.121V55.19h.011c0 1.248 1.008 2.26 2.254 2.268v.001h35.4v-.002c1.246-.008 2.254-1.02 2.254-2.268V44.835c.002-.034.01-.067.01-.101 .001-1.25-1.012-2.264-2.263-2.267Z"/><path d="M30.278 42.464v0H19.823v0h-.001c-1.253 0-2.269 1.017-2.269 2.269v0 0 10.454 0c0 1.253 1.016 2.269 2.268 2.269h.001v0h10.454v0c1.253 0 2.269-1.016 2.269-2.269v0V44.733v0 0c.002-1.252-1.014-2.269-2.267-2.269Z"/><path d="M42.516 30.276h.011c0 1.248 1.008 2.26 2.254 2.268v.001h35.4v-.002c1.246-.008 2.254-1.02 2.254-2.268V19.921c.002-.034.01-.067.01-.101 0-1.251-1.013-2.265-2.264-2.268v-.001h-35.4v.001c-.003 0-.006-.001-.009-.001 -1.253 0-2.269 1.017-2.269 2.269 0 .042.01.08.012.121v10.335Z"/><path d="M30.278 17.551v0H19.823v0h-.001c-1.253 0-2.269 1.017-2.269 2.269v0 0 10.454 0c0 1.253 1.016 2.269 2.268 2.269h.001v0h10.454v0c1.253 0 2.269-1.016 2.269-2.269v0V19.82v0 0c.002-1.253-1.014-2.269-2.267-2.269Z"/></g></svg>