<svg width="18" height="18" viewBox="0 0 18 18" xmlns="http://www.w3.org/2000/svg"><path fill-rule="evenodd" d="M3.403 6.808C2.628 6.808 2 6.179 2 5.404 2 4.629 2.628 4 3.403 4c.775 0 1.404.629 1.404 1.404 0 .775-.629 1.404-1.404 1.404v0Zm0 3.743C2.628 10.551 2 9.922 2 9.147c0-.775.628-1.403 1.403-1.403s1.404.628 1.404 1.403 -.629 1.404-1.404 1.404v0Zm0 3.744c-.775 0-1.403-.63-1.403-1.404 0-.775.628-1.404 1.403-1.404s1.404.629 1.404 1.404c0 .774-.629 1.404-1.404 1.404v0Zm11.699-8.189c0 .124-.11.234-.234.234H5.977c-.125 0-.234-.11-.234-.234V4.701c0-.124.109-.233.234-.233h8.891c.124 0 .234.109.234.233v1.405 0Zm0 3.743c0 .124-.11.234-.234.234H5.977c-.125 0-.234-.11-.234-.234V8.445c0-.124.109-.234.234-.234h8.891c.124 0 .234.11.234.234v1.404 0Zm0 3.744c0 .124-.11.234-.234.234H5.977c-.125 0-.234-.11-.234-.234v-1.405c0-.124.109-.233.234-.233h8.891c.124 0 .234.109.234.233v1.405 0Z"/></svg>