<svg width="100" height="100" viewBox="0 0 100 100" xmlns="http://www.w3.org/2000/svg"><g><path d="M88.721 20.13H26.258c-1.882 0-3.407 1.525-3.407 3.407v3.143c0 1.881 1.525 3.407 3.407 3.407h62.463c1.881 0 3.407-1.525 3.407-3.407v-3.143c-1e-07-1.882-1.526-3.407-3.407-3.407Z"/><path d="M88.721 45.022H26.258c-1.882 0-3.407 1.525-3.407 3.407v3.143c0 1.881 1.525 3.407 3.407 3.407h62.463c1.881 0 3.407-1.525 3.407-3.407v-3.143c-1e-07-1.882-1.526-3.407-3.407-3.407Z"/><path d="M88.721 69.913H26.258c-1.882 0-3.407 1.525-3.407 3.407v3.143c0 1.881 1.525 3.407 3.407 3.407h62.463c1.881 0 3.407-1.525 3.407-3.407V73.32c-1e-07-1.881-1.526-3.407-3.407-3.407Z"/><path d="M12.856 20.124a4.984 4.984 0 1 0 0 9.968 4.984 4.984 0 1 0 0-9.968Z"/><path d="M12.856 44.018a4.984 4.984 0 1 0 0 9.968 4.984 4.984 0 1 0 0-9.968Z"/><path d="M12.856 69.907a4.984 4.984 0 1 0 0 9.968 4.984 4.984 0 1 0 0-9.968Z"/></g></svg>