<svg width="18" height="18" viewBox="0 0 18 18" xmlns="http://www.w3.org/2000/svg"><g fill-rule="evenodd"><path d="M8.83566 5.29767c-.8262 0-1.4985.6723-1.4985 1.4985v.9927h2.9979v-.9927c0-.8262-.6723-1.4985-1.4994-1.4985"/><path d="M12.4357 13.1884h-7.2v-5.4h.9306v-.9927c0-1.4706 1.1979-2.6685 2.6694-2.6685 1.4724 0 2.6703 1.1979 2.6703 2.6685v.9927h.9297v5.4Zm-3.6-12.7386c-4.6314 0-8.3853 3.7548-8.3853 8.3853 0 4.6314 3.7539 8.3853 8.3853 8.3853 4.6314 0 8.3853-3.7539 8.3853-8.3853 0-4.6305-3.7539-8.3853-8.3853-8.3853v0Z"/></g></svg>