<svg width="100" height="100" viewBox="0 0 100 100" xmlns="http://www.w3.org/2000/svg"><path fill="#231F20" d="M83.417 18.329c0-.002.001-.003.001-.005 0-.853-.69-1.544-1.542-1.545v-.016H61.078v.017c-.846.008-1.53.695-1.53 1.543v6.871 0 0c0 .847.684 1.534 1.53 1.542v.001h5.151l-8.713 8.713c-4.202-2.875-9.284-4.56-14.761-4.56 -14.455 0-26.173 11.718-26.173 26.173 0 14.455 11.718 26.174 26.173 26.174 14.455 0 26.173-11.719 26.173-26.174 0-5.373-1.621-10.366-4.398-14.521l8.911-8.911v5.473c0 .853.691 1.544 1.544 1.544h6.887c.852 0 1.544-.691 1.544-1.544 0-.002-.001-.003-.001-.005v-20.77ZM42.755 73.262c-8.946 0-16.198-7.252-16.198-16.199 0-8.946 7.252-16.199 16.198-16.199 8.946 0 16.199 7.253 16.199 16.199 -1e-07 8.947-7.253 16.199-16.199 16.199Z"/></svg>