<svg width="100" height="100" viewBox="0 0 100 100" xmlns="http://www.w3.org/2000/svg"><g fill="#231F20"><path d="M22.336 11.449a8.272 8.272 0 1 0 0 16.544 8.272 8.272 0 1 0 0-16.544Z"/><path d="M37.999 30.217v-.04H8.363v.027c-2.142 0-3.878 1.729-3.894 3.867h-.003V57.51h.039c-.002.893.337 1.786 1.018 2.467 1.358 1.359 3.56 1.359 4.919 0 .68-.681 1.019-1.574 1.017-2.467h.008V41.32v-.172h.009c.025-.592.505-1.064 1.101-1.064 .598 0 1.078.473 1.103 1.064h.009v.172 10.44 32.293c.003 2.245 1.822 4.063 4.068 4.063 2.246 0 4.068-1.821 4.068-4.068V62.444h.03c0-.623.504-1.128 1.126-1.128 .622 0 1.127.505 1.127 1.128h.029v21.604c0 2.247 1.823 4.068 4.069 4.068 2.247 0 4.068-1.821 4.068-4.068V62.444 51.76 41.32v-.172c0-.615.497-1.112 1.112-1.112 .613 0 1.11.497 1.11 1.112v.172 16.191h.038c-.002.893.337 1.786 1.018 2.467 1.359 1.359 3.561 1.359 4.92 0 .681-.681 1.02-1.574 1.018-2.467h.007V34.072c.002-2.015-1.535-3.654-3.498-3.855Z"/><path d="M72.297 11.448a8.32 8.32 0 1 0 0 16.64 8.32 8.32 0 1 0 0-16.64Z"/><path d="M95.534 54.161l-5.55-20.712c-.003-.016-.009-.032-.013-.048l-.098-.365 -.014.004c-.506-1.579-1.968-2.729-3.715-2.729 -.014 0-.026.004-.04.004v-.072h-26.12v.068c-1.747 0-3.209 1.151-3.715 2.729l-.014-.004 -.098.364c-.004.017-.01.033-.013.05l-5.55 20.711 .052.014c-.025.171-.052.342-.052.52 0 1.952 1.583 3.536 3.536 3.536 1.495 0 2.767-.932 3.283-2.244l.025.007 4.071-15.193v.057h.032c.111-.5.536-.882 1.07-.882s.959.382 1.07.882h.033v.164c.002.025.015.047.015.072 0 .025-.013.047-.015.072v.155l-6.518 24.326c-.105.214-.169.449-.187.698l-.014.051 .008.002c-.001.028-.008.054-.008.082 0 1.048.85 1.897 1.898 1.897h4.82v16.08c0 2.259 1.831 4.09 4.091 4.09 2.259 0 4.091-1.832 4.091-4.09v-16.08h2.326v16.08c0 2.259 1.832 4.09 4.091 4.09 2.26 0 4.091-1.832 4.091-4.09v-16.08h4.835c1.048 0 1.898-.849 1.898-1.897 0-.028-.007-.055-.008-.082l.008-.002 -.014-.051c-.018-.249-.082-.484-.187-.698l-6.499-24.253 .021-.006c-.027-.096-.06-.191-.06-.296 0-.616.5-1.118 1.118-1.118 .525 0 .946.371 1.065.86l.043-.011 4.065 15.169 .024-.007c.517 1.312 1.788 2.244 3.283 2.244 1.953 0 3.536-1.584 3.536-3.536 0-.178-.027-.349-.052-.52l.055-.012Z"/></g></svg>