<svg width="100" height="100" viewBox="0 0 100 100" xmlns="http://www.w3.org/2000/svg"><g><path d="M91.967 7.961c0-.016.005-.031.005-.047 0-1.51-1.223-2.731-2.73-2.733v0h-.002s0 0-.001 0 0 0-.001 0H39.57v0 0h-.011v.011L8.031 36.721h-.003v55.365h.003s0 0 0 .001c0 1.507 1.227 2.731 2.734 2.731v0h78.479v0c1.307-.002 2.397-.923 2.663-2.15h.06v-.536c0-.015.004-.029.004-.044 0-.015-.004-.029-.004-.044l0-84.083Zm-24.328 7.177H82.01v24.597L63.897 21.621l3.742-6.483ZM39.57 39.453v-.001c1.504-.006 2.722-1.226 2.722-2.73 0 0 0-.001 0-.001v0V15.138H61.88l-27.17 47.06 -16.725-16.725v-6.02H39.57ZM17.985 84.862V52.527L32.128 66.67 21.626 84.862h-3.641Zm9.4 0l33.93-58.769 20.696 20.696v38.073H27.385Z"/><path d="M62.03 45.576c-6.645 0-12.026 5.387-12.026 12.027 0 2.659.873 5.109 2.334 7.1l7.759 13.439c.047.094.097.186.157.271l.016.027 .004-.002c.394.544 1.028.899 1.764.899 .664 0 1.243-.302 1.641-.767l.02.011 .075-.129c.114-.153.214-.317.287-.497l7.608-13.178c1.494-2.004 2.39-4.482 2.39-7.175 -.003-6.639-5.384-12.026-12.029-12.026ZM61.911 63.7c-3.274 0-5.926-2.651-5.926-5.925s2.652-5.928 5.926-5.928 5.926 2.654 5.926 5.928 -2.652 5.925-5.926 5.925Z"/></g></svg>