<svg width="100" height="100" viewBox="0 0 100 100" xmlns="http://www.w3.org/2000/svg"><g><path d="M75.412 70.658v-.033h-.003c-.018-.939-.783-1.696-1.727-1.696h-6.49v0c-.944 0-1.708.757-1.727 1.696h-.01v12.668H24.814V36.16h17.723c.956 0 1.73-.774 1.73-1.73V16.707h21.188v30.2h.013c.034.926.789 1.668 1.724 1.668h6.49c.935 0 1.69-.742 1.724-1.668h.006v-.061 -.001 -.001 -34.343h-.005V8.48c0-.956-.774-1.73-1.73-1.73h-2.45v0h-28.69v0h-1.73L14.857 32.7v2.447 1.013 52.912 2.447c0 .956.774 1.73 1.73 1.73h1.582 53.925 1.582c.956 0 1.73-.774 1.73-1.73v-2.448h.005V70.658v-1e-07h.001Z"/><path d="M83.413 53.562h-25.95c-.956 0-1.73.774-1.73 1.73v6.92c0 .955.774 1.73 1.73 1.73h25.95c.956 0 1.73-.775 1.73-1.73v-6.92c-1e-07-.957-.775-1.73-1.73-1.73Z"/></g></svg>