<svg width="100" height="100" viewBox="0 0 100 100" xmlns="http://www.w3.org/2000/svg"><g><path d="M94.284 65.553L75.825 52.411c-.389-.276-.887-.312-1.312-.093 -.424.218-.684.694-.685 1.173l.009 6.221H57.231c-.706 0-1.391.497-1.391 1.204v11.442c0 .707.685 1.194 1.391 1.194h16.774v6.27c0 .478.184.917.609 1.136 .425.219.853.182 1.242-.096l18.432-13.228c.335-.239.477-.626.477-1.038 0-.002 0-.002 0-.002 0-.415-.144-.801-.481-1.041Z"/><path d="M64.06 78.553h-6.49v0c-.956 0-1.73.774-1.73 1.73h-.007v3.01H15.191V36.16h17.723c.956 0 1.73-.774 1.73-1.73V16.707h21.188v36.356h.011c.021.937.784 1.691 1.726 1.691h6.49c.943 0 1.705-.754 1.726-1.691h.004v-.038s0-.001 0-.001v-.001 -40.522h-.005V8.48c0-.956-.774-1.73-1.73-1.73h-2.45v0h-28.69v0h-1.73L5.235 32.7v2.447 1.013 52.912 2.447c0 .956.774 1.73 1.73 1.73h1.582 53.925 1.582c.956 0 1.73-.774 1.73-1.73v-2.448h.005v-8.789 -.001c.001-.953-.774-1.728-1.729-1.728Z"/></g></svg>