<svg width="100" height="100" viewBox="0 0 100 100" xmlns="http://www.w3.org/2000/svg"><g><path d="M21.455 36.16h25.95c.956 0 1.729-.774 1.729-1.73V8.48c0-.956-.774-1.73-1.729-1.73h-1.73L19.725 32.7v1.729c0 .957.774 1.731 1.73 1.731Z"/><path d="M78.545 6.75H60.821c-.806 0-1.476.553-1.669 1.298h-.061v36.551h-.002c0 .008.002.015.002.023 0 .956-.774 1.73-1.73 1.73 -.003 0-.006-.001-.009-.001v.001H21.455c-.873 0-1.586.647-1.706 1.487h-.024V91.52c0 .956.774 1.73 1.73 1.73h57.09c.956 0 1.73-.774 1.73-1.73V8.48c-1e-07-.956-.774-1.73-1.73-1.73Z"/></g></svg>