<svg width="100" height="100" viewBox="0 0 100 100" xmlns="http://www.w3.org/2000/svg"><g><path d="M75.272 7.482h-.005v-4.02c0-.956-.774-1.73-1.73-1.73h-2.45v0h-28.69v0h-1.73l-25.95 25.95v2.447 1.013 52.912 2.447c0 .956.774 1.73 1.73 1.73h1.582 53.925 1.582c.956 0 1.73-.774 1.73-1.73v-2.448h.005l.001-76.571ZM24.674 78.276V31.142h17.723c.956 0 1.73-.774 1.73-1.73V11.689h21.188v66.587H24.674Z"/><path d="M83.77 24.857h-3.475v66.911c0 .835-.677 1.513-1.513 1.513H29.306v3.475c0 .836.677 1.513 1.513 1.513h.001v0h52.95c.836 0 1.513-.677 1.513-1.513V26.37c0-.836-.677-1.513-1.513-1.513Z"/></g></svg>