<svg width="100" height="100" viewBox="0 0 100 100" xmlns="http://www.w3.org/2000/svg"><g><path d="M41.131 61.862h-4.927v9.231H39v-2.906h2.131c2.159 0 3.321-1.439 3.321-3.156 .001-1.73-1.162-3.169-3.321-3.169Zm-.36 3.889H39v-1.453h1.771c.471 0 .844.235.844.733 .001.485-.373.72-.844.72Z"/><path d="M50.032 61.862h-4.124v9.231h4.138c2.893 0 5.052-1.675 5.052-4.623 0-2.948-2.16-4.608-5.066-4.608Zm0 6.796h-1.329v-4.36h1.342c1.495 0 2.214.927 2.214 2.173 .001 1.162-.829 2.187-2.227 2.187Z"/><path d="M56.792 71.093l2.796 0 0-3.446 4.11 0 0-2.436 -4.11 0 0-.913 4.207 0 0-2.436 -7.003 0Z"/><path d="M80.277 12.5h-.005V8.48c0-.956-.774-1.73-1.73-1.73h-2.45v0h-28.69v0h-1.73L19.722 32.7v2.447 1.013 52.912 2.447c0 .956.774 1.73 1.73 1.73h1.582H76.96h1.582c.956 0 1.73-.774 1.73-1.73v-2.448h.005V12.5ZM29.679 83.294V36.16h17.723c.956 0 1.73-.774 1.73-1.73V16.707H70.32v66.587H29.679Z"/></g></svg>