<svg width="100" height="100" viewBox="0 0 100 100" xmlns="http://www.w3.org/2000/svg"><g><path d="M94.284 65.553L75.825 52.411c-.389-.276-.887-.312-1.312-.093 -.424.218-.684.694-.685 1.173l.009 6.221H57.231c-.706 0-1.391.497-1.391 1.204v11.442c0 .707.685 1.194 1.391 1.194h16.774v6.27c0 .478.184.917.609 1.136 .425.219.853.182 1.242-.097l18.432-13.228c.335-.239.477-.626.477-1.038 0-.002 0-.002 0-.002 0-.414-.144-.8-.481-1.04Z"/><path d="M64.06 78.553h-6.49v0c-.956 0-1.73.774-1.73 1.73h-.007v3.01H15.191V36.16h17.723c.956 0 1.73-.774 1.73-1.73V16.707h21.188v36.356h.011c.021.937.784 1.691 1.726 1.691h6.49c.943 0 1.705-.754 1.726-1.691h.004v-.038s0-.001 0-.001c0-.001 0-.001 0-.002V12.5h-.005V8.48c0-.956-.774-1.73-1.73-1.73h-2.45v0h-28.69v0h-1.73L5.235 32.7v2.447 1.013 52.912 2.447c0 .956.774 1.73 1.73 1.73h1.582 53.925 1.582c.956 0 1.73-.774 1.73-1.73v-2.448h.005v-8.789 -.001c.001-.953-.774-1.728-1.729-1.728Z"/><path d="M21.525 61.862v9.231h2.795v-2.906h2.131c2.159 0 3.321-1.439 3.321-3.156 0-1.73-1.162-3.169-3.321-3.169h-4.926Zm5.411 3.169c0 .484-.374.72-.844.72H24.32v-1.453h1.771c.471 0 .845.235.845.733Z"/><path d="M31.228 61.862v9.231h4.138c2.893 0 5.052-1.675 5.052-4.623 0-2.948-2.159-4.608-5.065-4.608h-4.125Zm6.352 4.609c0 1.163-.83 2.187-2.228 2.187h-1.329v-4.36h1.342c1.495 0 2.215.927 2.215 2.173Z"/><path d="M49.116 64.298l0-2.436 -7.003 0 0 9.231 2.795 0 0-3.446 4.11 0 0-2.436 -4.11 0 0-.913Z"/></g></svg>