<svg width="100" height="100" viewBox="0 0 100 100" xmlns="http://www.w3.org/2000/svg"><g><path d="M73.682 78.553h-6.49v0c-.956 0-1.73.774-1.73 1.73h-.007v3.01H24.814V36.16h17.723c.956 0 1.73-.774 1.73-1.73V16.707h21.188v20.627h.008c.003.954.776 1.726 1.73 1.726h6.49c.954 0 1.727-.772 1.729-1.726v0 -.004 -.001s0-.001 0-.001V12.5h-.005V8.48c0-.956-.774-1.73-1.73-1.73h-2.45v0h-28.69v0h-1.73L14.857 32.7v2.447 1.013 52.912 2.447c0 .956.774 1.73 1.73 1.73h1.582 53.925 1.582c.956 0 1.73-.774 1.73-1.73v-2.448h.005v-8.789 -.001c.001-.953-.773-1.728-1.729-1.728Z"/><path d="M83.413 53.562h-7.785v-7.785c0-.955-.774-1.73-1.73-1.73h-6.92c-.956 0-1.73.775-1.73 1.73v7.785h-7.785c-.956 0-1.73.774-1.73 1.73v6.92c0 .955.774 1.73 1.73 1.73h7.785v7.785c0 .956.774 1.731 1.73 1.731h6.92c.956 0 1.73-.774 1.73-1.731v-7.785h7.785c.956 0 1.73-.775 1.73-1.73v-6.92c-1e-07-.957-.775-1.73-1.73-1.73Z"/></g></svg>