<svg width="100" height="100" viewBox="0 0 100 100" xmlns="http://www.w3.org/2000/svg"><g><path d="M94.284 65.553L75.825 52.411c-.389-.276-.887-.312-1.312-.093 -.424.218-.684.694-.685 1.173l.009 6.221H57.231c-.706 0-1.391.497-1.391 1.204v11.442c0 .707.685 1.194 1.391 1.194h16.774v6.27c0 .478.184.917.609 1.136 .425.219.853.182 1.242-.097l18.432-13.228c.335-.239.477-.626.477-1.038 0-.002 0-.002 0-.002 0-.414-.144-.8-.481-1.04Z"/><path d="M64.06 78.553h-6.49v0c-.956 0-1.73.774-1.73 1.73h-.007v3.01H15.191V36.16h17.723c.956 0 1.73-.774 1.73-1.73V16.707h21.188v36.356h.011c.021.937.784 1.691 1.726 1.691h6.49c.943 0 1.705-.754 1.726-1.691h.004v-.038s0-.001 0-.001c0-.001 0-.001 0-.002V12.5h-.005V8.48c0-.956-.774-1.73-1.73-1.73h-2.45v0h-28.69v0h-1.73L5.235 32.7v2.447 1.013 52.912 2.447c0 .956.774 1.73 1.73 1.73h1.582 53.925 1.582c.956 0 1.73-.774 1.73-1.73v-2.448h.005v-8.789 -.001c.001-.953-.774-1.728-1.729-1.728Z"/><path d="M20.364 61.862v9.231h4.138c2.893 0 5.052-1.675 5.052-4.623 0-2.948-2.159-4.608-5.065-4.608h-4.125Zm6.352 4.609c0 1.163-.83 2.187-2.228 2.187H23.16v-4.36h1.342c1.495 0 2.214.927 2.214 2.173Z"/><path d="M30.733 66.485c0 2.837 2.201 4.774 5.052 4.774 2.851 0 5.051-1.938 5.051-4.774 0-2.837-2.201-4.775-5.051-4.775 -2.852 0-5.052 1.937-5.052 4.775Zm7.266 0c0 1.287-.872 2.311-2.214 2.311 -1.343 0-2.214-1.024-2.214-2.311s.872-2.312 2.214-2.312c1.342-1e-07 2.214 1.025 2.214 2.312Z"/><path d="M47.093 64.173c.831 0 1.55.623 1.786 1.342l2.408-1.121c-.554-1.273-1.771-2.685-4.194-2.685 -2.892 0-5.079 1.924-5.079 4.775 0 2.837 2.187 4.774 5.079 4.774 2.422 0 3.654-1.467 4.194-2.699l-2.408-1.107c-.235.719-.955 1.342-1.786 1.342 -1.342 0-2.242-1.024-2.242-2.311s.9-2.31 2.242-2.31Z"/></g></svg>