<svg width="100" height="100" viewBox="0 0 100 100" xmlns="http://www.w3.org/2000/svg"><g><path d="M73.603 78.553h-6.49v0c-.956 0-1.73.774-1.73 1.73h-.007v3.01H24.735V36.16h17.723c.956 0 1.73-.774 1.73-1.73V16.707h21.188v20.627h.008c.003.954.776 1.726 1.73 1.726h6.49c.954 0 1.727-.772 1.729-1.726v0 -.004 -.001s0-.001 0-.001V12.5h-.005V8.48c0-.956-.774-1.73-1.73-1.73h-2.45v0H42.457v0h-1.73L14.778 32.7v2.447 1.013 52.912 2.447c0 .956.774 1.73 1.73 1.73h1.582 53.925 1.582c.956 0 1.73-.774 1.73-1.73v-2.448h.005v-8.789 -.001c.001-.953-.773-1.728-1.729-1.728Z"/><path d="M79.21 58.751l5.505-5.505c.676-.676.676-1.771 0-2.447l-4.894-4.893c-.676-.676-1.771-.676-2.446 0l-5.505 5.505 -5.505-5.505c-.676-.676-1.77-.676-2.446 0L59.026 50.8c-.676.676-.676 1.771 0 2.447l5.505 5.505 -5.505 5.505c-.676.676-.676 1.771 0 2.446l4.894 4.893c.676.676 1.77.676 2.446 0l5.505-5.505 5.505 5.505c.676.676 1.77.676 2.446 0l4.894-4.893c.676-.676.676-1.771 0-2.446l-5.506-5.506Z"/></g></svg>