<svg width="100" height="100" viewBox="0 0 100 100" xmlns="http://www.w3.org/2000/svg"><g><path d="M40.531 19.959c-.097 0-.19.016-.283.029v-.029H29.912h-.001c-1.194 0-2.163.968-2.163 2.163 0 .002 0 .003 0 .005h-.001V77.87h.001c0 .003-.001.006-.001.009 0 1.194.969 2.162 2.163 2.162v0 0h10.62v0c1.194 0 2.162-.968 2.162-2.162 0-.003-.001-.006-.001-.009h.001V22.127v-1e-07c0-.002.001-.004.001-.005 0-1.195-.969-2.163-2.162-2.163Z"/><path d="M72.251 77.87V22.127v0c0-.002.001-.004.001-.005 0-1.195-.969-2.163-2.162-2.163 -.097 0-.19.016-.283.029v-.029H59.47v0c-1.194 0-2.163.968-2.163 2.163 0 .002 0 .003 0 .005h-.001V77.87h.001c0 .003-.001.006-.001.009 0 1.194.969 2.162 2.163 2.162v0 0h10.618v0c1.194 0 2.162-.968 2.162-2.162 .002-.003.001-.006.002-.009v0Z"/></g></svg>