<svg width="100" height="100" viewBox="0 0 100 100" xmlns="http://www.w3.org/2000/svg"><g><path d="M90.443 35.141c-.064-.953-.849-1.708-1.818-1.708H75.511v0 0V11.857c0-1.012-.819-1.83-1.83-1.83H26.319c-1.011 0-1.83.818-1.83 1.83v21.576 0H11.377s-.002 0-.002 0c-.969 0-1.754.755-1.818 1.708h-.012V71.91c0 1.01.819 1.829 1.83 1.829v0h13.114V58.425v0h4.987 41.047 4.987v0 15.314h13.114c1.011 0 1.83-.819 1.83-1.829V35.141h-.011Zm-19.919 6.49H29.476V16.844c0-1.012.819-1.83 1.83-1.83v0h37.387c1.011 0 1.83.818 1.83 1.83v24.787Z"/><path d="M29.602 88.143c0 1.012.819 1.83 1.83 1.83h37.136c1.011 0 1.83-.818 1.83-1.83v-24.64H29.602v24.64Z"/></g></svg>