<svg width="100" height="100" viewBox="0 0 100 100" xmlns="http://www.w3.org/2000/svg"><path fill="#231F20" d="M50 12.5c-20.712 0-37.5 16.793-37.5 37.502C12.5 70.712 29.288 87.5 50 87.5c20.712 0 37.5-16.788 37.5-37.498C87.5 29.293 70.712 12.5 50 12.5Zm0 65.061c-15.199 0-27.561-12.362-27.561-27.559 0-6.702 2.407-12.853 6.4-17.636l38.795 38.795c-4.782 3.992-10.931 6.4-17.634 6.4Zm21.161-9.926L32.366 28.839c4.782-3.992 10.931-6.4 17.634-6.4 15.198 0 27.56 12.367 27.56 27.562 0 6.703-2.407 12.852-6.399 17.634Z"/></svg>