<svg width="100" height="100" viewBox="0 0 100 100" xmlns="http://www.w3.org/2000/svg"><g><path d="M88.158 16.509v0c0-.986-.798-1.785-1.785-1.786H13.628c-1e-07 0-1e-07 0-1e-07 0 -.987 0-1.786.799-1.786 1.785v.001 6.385 0c0 .986.799 1.785 1.786 1.785 0 0 0 0 .001 0h72.745c.987 0 1.785-.799 1.785-1.785v0l-.001-6.385v0Z"/><path d="M82.026 29.659H17.974c-.986.001-1.785.8-1.785 1.786 0 .003.001.006.001.006l-.001.003v37.154c0 2.201 1.857 3.982 4.152 3.982h27.17v5.373c-.966.748-1.599 1.906-1.599 3.222 0 2.259 1.831 4.09 4.089 4.09 2.258 0 4.089-1.831 4.089-4.09 0-1.317-.634-2.476-1.601-3.223V72.59h27.17c2.294 0 4.152-1.781 4.152-3.982V31.412h-.003c-.019-.97-.808-1.752-1.782-1.753Z"/></g></svg>