<svg width="18" height="18" viewBox="0 0 18 18" xmlns="http://www.w3.org/2000/svg"><path fill-rule="evenodd" d="M10.8087 9.65828c-.488758.28205-.794956.852911-.794956 1.09343 0 .181594-.141025.396995-.331312.396995H7.69359c-.181594 0-.297505-.281084-.297505-.463644V10.3122c0-1.00166.993936-1.86327 1.72321-2.19458 .63751-.290743.903139-.563134.903139-1.09343 0-.46461-.604669-.878025-1.27695-.878025 -.371881 0-.711886.115911-.894446.240515 -.198981.140059-.397961.339039-.885753.952401 -.0666488.0830695-.165173.132332-.256936.132332 -.0743762 0-.141025-.0251141-.206708-.0666488L5.14258 6.3693C5.00156 6.26209 4.96871 6.07953 5.06048 5.93078 5.95492 4.44808 7.21352 3.7275 8.90292 3.7275c1.77247 0 3.76131 1.41605 3.76131 3.31312 0 1.57349-1.06928 2.17816-1.85554 2.61766v0Zm-.762114 4.3399c0 .18256-.148752.331312-.331312.331312H7.7274c-.18256 0-.331312-.148752-.331312-.331312V12.0113c0-.18256.148752-.332278.331312-.332278h1.98787c.18256 0 .331312.149718.331312.332278v1.98691ZM8.99952-4e-07C4.02984-4e-07 5e-07 4.02984 5e-07 8.99952 5e-07 13.9702 4.02984 18 8.99952 18 13.9702 18 18 13.9702 18 8.99952 18 4.02984 13.9702-4e-07 8.99952-4e-07v0Z"/></svg>