<?xml version="1.0" standalone="no"?>
<!DOCTYPE svg PUBLIC "-//W3C//DTD SVG 20010904//EN"
 "http://www.w3.org/TR/2001/REC-SVG-20010904/DTD/svg10.dtd">
<svg version="1.0" xmlns="http://www.w3.org/2000/svg"
 width="1600.000000pt" height="1600.000000pt" viewBox="0 0 1600.000000 1600.000000"
 preserveAspectRatio="xMidYMid meet">
<g transform="translate(0.000000,1600.000000) scale(0.100000,-0.100000)"
fill="#000000" stroke="none">
<path d="M12456 13919 c-59 -20 -1510 -851 -1596 -914 -162 -119 -235 -363
-166 -555 23 -65 848 -1504 913 -1593 115 -157 363 -230 553 -164 66 23 1501
847 1592 914 153 112 230 360 168 542 -20 60 -793 1415 -896 1572 -121 184
-364 268 -568 198z"/>
<path d="M7158 13307 c-122 -42 -230 -134 -283 -242 -14 -27 -160 -417 -326
-865 -337 -913 -334 -899 -295 -1050 33 -127 139 -265 246 -320 77 -39 1663
-620 1724 -631 199 -36 428 77 519 257 31 61 612 1634 626 1695 37 157 -16
334 -134 455 -74 75 -113 95 -379 194 -1124 415 -1368 505 -1411 516 -80 22
-209 17 -287 -9z"/>
<path d="M2394 12655 c-186 -40 -345 -199 -383 -383 -19 -92 -15 -1805 5
-1892 38 -168 184 -318 353 -362 95 -24 1821 -27 1916 -3 187 48 331 197 370
382 19 86 22 1760 4 1859 -36 198 -205 367 -403 403 -94 17 -1782 13 -1862 -4z"/>
<path d="M11191 9365 c-131 -37 -248 -129 -308 -242 -34 -62 -605 -1601 -629
-1692 -53 -206 54 -448 244 -549 63 -33 1632 -615 1703 -631 184 -43 397 40
508 199 23 32 60 108 82 167 174 462 555 1500 570 1553 60 208 -38 455 -223
564 -24 14 -417 163 -873 332 -830 307 -830 307 -925 310 -65 3 -112 -1 -149
-11z"/>
<path d="M2394 8655 c-186 -40 -345 -199 -383 -383 -19 -92 -15 -1805 5 -1892
38 -168 184 -318 353 -362 95 -24 1821 -27 1916 -3 187 48 331 197 370 382 19
86 22 1760 4 1859 -36 198 -205 367 -403 403 -94 17 -1782 13 -1862 -4z"/>
<path d="M6394 8655 c-186 -40 -345 -199 -383 -383 -19 -92 -15 -1805 5 -1892
38 -168 184 -318 353 -362 95 -24 1821 -27 1916 -3 187 48 331 197 370 382 19
86 22 1760 4 1859 -36 198 -205 367 -403 403 -94 17 -1782 13 -1862 -4z"/>
<path d="M2394 4655 c-186 -40 -345 -199 -383 -383 -19 -92 -15 -1805 5 -1892
38 -168 184 -318 353 -362 95 -24 1821 -27 1916 -3 187 48 331 197 370 382 19
86 22 1760 4 1859 -36 198 -205 367 -403 403 -94 17 -1782 13 -1862 -4z"/>
<path d="M6394 4655 c-186 -40 -345 -199 -383 -383 -19 -92 -15 -1805 5 -1892
38 -168 184 -318 353 -362 95 -24 1821 -27 1916 -3 187 48 331 197 370 382 19
86 22 1760 4 1859 -36 198 -205 367 -403 403 -94 17 -1782 13 -1862 -4z"/>
<path d="M10394 4655 c-186 -40 -345 -199 -383 -383 -19 -92 -15 -1805 5
-1892 38 -168 184 -318 353 -362 95 -24 1821 -27 1916 -3 187 48 331 197 370
382 19 86 22 1760 4 1859 -36 198 -205 367 -403 403 -94 17 -1782 13 -1862 -4z"/>
</g>
</svg>
