<svg width="100" height="100" viewBox="0 0 100 100" xmlns="http://www.w3.org/2000/svg"><g><path d="M92.11 21.929v0c0-.973-.789-1.761-1.761-1.761 -.002 0-.004.001-.006.001v-.005H44.465v.014c-.965.005-1.746.786-1.751 1.752h-.001v.007c0 .001 0 .001 0 .001 0 .001 0 .002 0 .002v6.332c-.001.03-.009.057-.009.087 0 .972.788 1.76 1.761 1.761v0h45.878v0c.002 0 .004.001.006.001 .973 0 1.761-.789 1.761-1.761 0 0 0-.001 0-.001l-1e-07-6.43Z"/><path d="M92.11 36.83v0c0-.973-.789-1.761-1.761-1.761 -.002 0-.004.001-.006.001v-.005H44.465v.014c-.965.005-1.746.786-1.751 1.752h-.001v.007 .002c0 .001 0 .001 0 .001v6.333c-.001.03-.009.057-.009.087 0 .972.788 1.76 1.761 1.761v0h45.878v-.001c.002 0 .004.001.006.001 .973 0 1.761-.789 1.761-1.761v-.001l-1e-07-6.43Z"/><path d="M32.748 21.925v0c0-.973-.788-1.761-1.761-1.761 -.043 0-.084.01-.126.013H9.777c-.042-.003-.083-.013-.126-.013 -.973 0-1.761.789-1.761 1.761v0V43.26v0 0c0 .972.788 1.761 1.761 1.761v0h21.336v0 0c.973 0 1.761-.789 1.761-1.761v0 0V21.925Z"/><path d="M92.11 56.744v0c0-.973-.789-1.761-1.761-1.761 -.002 0-.004.001-.006.001v-.005H44.465v.014c-.965.005-1.746.786-1.751 1.752h-.001v.007c0 .001 0 .001 0 .002 0 0 0 .001 0 .002v6.332c-.001.03-.009.057-.009.087 0 .972.788 1.761 1.761 1.761v0h45.878v-.001c.002 0 .004.001.006.001 .973 0 1.761-.789 1.761-1.761v-.001l-1e-07-6.43Z"/><path d="M92.11 71.645v0c0-.973-.789-1.761-1.761-1.761 -.002 0-.004.001-.006.001v-.005H44.465v.014c-.965.005-1.746.786-1.751 1.752h-.001v.007c0 .001 0 .001 0 .001 0 .001 0 .002 0 .002v6.332c-.001.03-.009.057-.009.087 0 .972.788 1.761 1.761 1.761h.001 45.877v-.001c.002 0 .004.001.006.001 .973 0 1.761-.789 1.761-1.761 0 0 0-.001 0-.001v-6.429Z"/><path d="M32.748 56.74v0c0-.973-.788-1.762-1.761-1.762 -.043 0-.084.01-.126.013H9.777c-.042-.003-.083-.013-.126-.013 -.973 0-1.761.789-1.761 1.762v0 21.335 0 0c0 .972.789 1.761 1.761 1.761 0 0 0 0 .001 0h21.335s0 0 0 0c.973 0 1.761-.789 1.761-1.761v0 0V56.74Z"/></g></svg>