<?xml version="1.0" standalone="no"?>
<!DOCTYPE svg PUBLIC "-//W3C//DTD SVG 20010904//EN"
 "http://www.w3.org/TR/2001/REC-SVG-20010904/DTD/svg10.dtd">
<svg version="1.0" xmlns="http://www.w3.org/2000/svg"
 width="1600.000000pt" height="1600.000000pt" viewBox="0 0 1600.000000 1600.000000"
 preserveAspectRatio="xMidYMid meet">
<g transform="translate(0.000000,1600.000000) scale(0.100000,-0.100000)"
fill="#000000" stroke="none">
<path d="M3130 13985 c-578 -92 -1027 -545 -1115 -1125 -22 -143 -22 -9577 0
-9720 88 -585 540 -1037 1125 -1125 146 -23 9577 -22 9725 0 287 43 529 167
741 379 212 212 335 454 379 746 18 116 22 6732 5 6900 -38 362 -172 704 -397
1008 -66 89 -2336 2371 -2478 2490 -294 247 -673 407 -1070 452 -150 17 -6808
12 -6915 -5z m4365 -1338 c186 -54 341 -175 422 -332 83 -160 78 -102 78 -980
0 -780 0 -780 -23 -855 -67 -214 -230 -379 -447 -452 -70 -23 -70 -23 -1155
-26 -1204 -3 -1172 -4 -1315 62 -185 87 -314 243 -365 442 -31 119 -31 1538 0
1658 67 263 295 463 565 496 33 4 537 7 1120 6 971 -2 1065 -3 1120 -19z
m2670 -3 c231 -56 413 -239 482 -484 27 -98 28 -1549 0 -1650 -82 -306 -336
-504 -647 -504 -309 0 -560 193 -647 499 -21 74 -33 1398 -14 1562 48 411 424
673 826 577z m713 -5346 c200 -73 347 -220 420 -420 27 -73 27 -73 30 -1513 2
-1293 1 -1447 -13 -1513 -55 -246 -265 -452 -515 -504 -114 -23 -5531 -19
-5624 5 -234 60 -427 252 -486 483 -19 75 -20 116 -20 1498 0 1571 -3 1480 65
1621 67 137 173 243 311 310 140 68 -95 64 2974 62 2785 -2 2785 -2 2858 -29z"/>
</g>
</svg>
