<svg width="100" height="100" viewBox="0 0 100 100" xmlns="http://www.w3.org/2000/svg"><g><path d="M32.961 75.131a5.889 5.889 0 1 0 0 11.778 5.889 5.889 0 1 0 0-11.778Z"/><path d="M74.309 75.131a5.889 5.889 0 1 0 0 11.778 5.889 5.889 0 1 0 0-11.778Z"/><path d="M73.513 55.216c1.377 0 2.556-.812 3.11-1.978l.003.002 14.589-25.27 -.018-.01c.214-.449.344-.946.344-1.477 0-1.907-1.545-3.452-3.452-3.452v0H73.513 44.929h-10.43v-6.488 0c0-1.907-1.545-3.452-3.452-3.452v0 0H12.186v.028c-.092-.008-.181-.028-.275-.028 -1.763 0-3.202 1.327-3.41 3.035h-.042v3.452 0c0 1.907 1.545 3.452 3.452 3.452 .094 0 .183-.021.275-.028v.028h12.373v43.733h.001c.005 1.902 1.548 3.442 3.451 3.442 0 0 .001 0 .002 0v0h59.254v-.085c1.633-.103 2.948-1.329 3.185-2.922h.049v-.49c0-.006.002-.012.002-.018 0-.006-.002-.012-.002-.018V63.67c0-.006.002-.012.002-.018 0-1.833-1.432-3.316-3.236-3.429v-.022H34.498v-4.988h39.015Z"/></g></svg>