<svg width="18" height="18" viewBox="0 0 18 18" xmlns="http://www.w3.org/2000/svg"><path fill-rule="evenodd" d="M14.4327 2c.412907 0 .778086.157603 1.09332.473918C15.8424 2.79023 16 3.15538 16 3.56826v10.8635c0 .413984-.157615.778024-.473955 1.09434C15.2108 15.8424 14.8456 16 14.4327 16H3.56727c-.412907 0-.778086-.157603-1.09332-.473918C2.15762 15.2098 2 14.8457 2 14.4317V11.333h1.56727v3.09878h10.8655V3.56826H3.56727v3.09878H2V3.56826c0-.412875.157615-.778024.473955-1.09434C2.78919 2.1576 3.15436 2 3.56727 2h10.8655v0Zm-6.9273 9.80633l2.0046-2.04107H2V8.23363h7.54666L7.50543 6.19256l1.09332-1.09323 3.90153 3.90011 -3.90153 3.90122 -1.09332-1.09434v0Z"/></svg>