<svg width="18" height="18" viewBox="0 0 18 18" xmlns="http://www.w3.org/2000/svg"><path fill-rule="evenodd" d="M9 0C4 0 0 4 0 9c0 5 4 9 9 9s9-4 9-9 -4-9-9-9v0Zm4.4 10.4c-.5.6-1.1 1-1.9 1.3 -.8.3-1.6.5-2.6.5 -.4 0-.8 0-1.3-.1 -.6.4-1.3.7-2 .9 -.2 0-.4.1-.6.1v0c-.1 0-.1 0-.1-.1 0 0-.1-.1-.1-.2v0 0 0 0 0 0 0 0s.1-.1.2-.2 .1-.2.2-.2c0-.1.1-.1.2-.2s.1-.2.2-.3c.1-.1.1-.2.1-.3 -.6-.3-1.1-.8-1.4-1.3 -.3-.5-.5-1-.5-1.6 0-.7.2-1.3.7-1.9 .5-.6 1.1-1 1.9-1.3 .8-.5 1.7-.7 2.6-.7 .9 0 1.8.2 2.6.5s1.4.8 1.9 1.3c.5.6.7 1.2.7 1.9s-.3 1.3-.8 1.9v0Z"/></svg>