<svg width="1024" height="1024" viewBox="0 -3e-06 768 768" xmlns="http://www.w3.org/2000/svg"><defs><clipPath id="a"><path d="M41.2969 378H363v287H41.2969Z"/></clipPath><clipPath id="b"><path d="M405 378h321.797v287H405Z"/></clipPath></defs><g fill-rule="evenodd"><path clip-path="url(#a)" d="M220.402 664.148H184.262c-78.7109 0-142.965-64.25-142.965-142.961V493.477c0-63.4492 51.8047-114.852 114.852-114.852h102.805c57.4258 0 104.012 46.5859 104.012 104.012v38.5508c0 78.7109-63.8516 142.961-142.562 142.961ZM113.984 532.43c-1.60938 0-3.21484-.398438-4.41797-1.20313C105.953 528.816 104.746 523.598 107.156 519.98l53.8125-82.3242C163.379 434.043 168.598 432.84 172.211 435.648c3.61719 2.41016 4.82031 7.23047 2.41016 10.8437L120.41 528.816C119.203 531.227 116.395 532.43 113.984 532.43ZM101.938 494.281c-1.60938 0-3.21484-.402344-4.41797-1.20312 -3.61719-2.41016-4.82031-7.23047-2.41016-11.2461l28.5117-43.3711C126.031 434.445 131.25 433.641 134.867 436.051 138.48 438.461 139.684 443.281 137.273 446.895L108.762 490.668C107.156 493.078 104.344 494.281 101.938 494.281Z"/><path clip-path="url(#b)" d="M583.832 664.148H547.691c-78.7109 0-142.562-64.25-142.562-142.961V482.637c0-57.4258 46.5859-104.012 103.609-104.012h102.805c63.4492 0 115.254 51.4023 115.254 114.852v27.7109c0 78.7109-64.2539 142.961-142.965 142.961Z"/><path d="M512.352 394.687H255.34c-4.41797 0-8.03125-3.61328-8.03125-8.03125 0-4.41797 3.61328-8.03125 8.03125-8.03125h257.012c4.41797 0 8.03125 3.61328 8.03125 8.03125 0 4.41797-3.61328 8.03125-8.03125 8.03125Z"/><path d="M419.184 456.133c-1.60547 0-3.61328-.402343-4.81641-1.60937 -30.1211-25.2969-59.4336-1.20313-60.6406 0C350.516 457.336 345.293 456.934 342.484 453.32c-2.8125-3.21484-2.41016-8.43359.800781-11.2461 14.0547-11.6445 48.9961-26.9063 81.1211 0C428.02 444.887 428.422 450.105 425.609 453.32c-1.60547 2.00781-4.01563 2.8125-6.42578 2.8125Z"/><path d="M52.1406 477.816c-.402344 0-.804687 0-1.20703 0C46.5156 477.012 43.707 473.398 44.1094 469.383L62.582 217.992C62.9805 211.969 65.3906 206.348 69.8086 201.93l87.5469-90.3555c4.81641-4.82031 11.2422-7.62891 18.4727-7.62891 6.82422 0 13.25 2.40625 18.0703 7.22656 4.82031 4.82031 7.62891 11.2461 7.62891 18.0703 0 6.82812-2.41016 13.2539-7.22656 18.4727L113.18 231.246l-12.8516 177.5C99.9297 411.152 99.125 413.16 97.1172 414.367c-18.875 14.457-32.125 34.5352-37.3477 57.4258 -.804687 3.61328-4.01563 6.02344-7.62891 6.02344Z"/><path d="M715.953 477.816c-3.61328 0-7.22656-2.41016-8.03125-6.02344 -5.21875-22.8906-18.0703-42.9688-36.9453-57.4258C668.969 413.16 667.766 411.152 667.766 408.746l-13.2539-177.5 -80.7188-83.5313C568.977 142.496 566.164 136.07 566.566 129.242c0-6.82422 2.80859-13.25 7.62891-18.0703 4.82031-4.82031 11.2461-7.22656 18.0703-7.22656 6.82812 0 13.6562 2.80859 18.4727 7.62891L698.285 201.93c4.41797 4.41797 6.82812 10.0391 7.22656 16.0625l18.4727 251.391C724.387 473.398 721.176 477.012 717.16 477.816c-.402344 0-.804687 0-1.20703 0Z"/></g></svg>