<?xml version="1.0" standalone="no"?>
<!DOCTYPE svg PUBLIC "-//W3C//DTD SVG 20010904//EN"
 "http://www.w3.org/TR/2001/REC-SVG-20010904/DTD/svg10.dtd">
<svg version="1.0" xmlns="http://www.w3.org/2000/svg"
 width="1600.000000pt" height="1600.000000pt" viewBox="0 0 1600.000000 1600.000000"
 preserveAspectRatio="xMidYMid meet">
<g transform="translate(0.000000,1600.000000) scale(0.100000,-0.100000)"
fill="#000000" stroke="none">
<path d="M10105 14664 c-1285 -84 -2619 -749 -3388 -1688 -853 -1044 -1188
-2281 -951 -3519 54 -286 56 -304 51 -472 -9 -279 -86 -497 -260 -740 -32 -44
-724 -745 -1882 -1905 -1208 -1210 -1853 -1863 -1894 -1918 -456 -608 -551
-1399 -245 -2040 469 -986 1729 -1350 2669 -772 166 102 242 175 2080 2010
1023 1021 1883 1875 1910 1897 301 241 701 352 1045 289 41 -8 137 -26 212
-40 1240 -232 2447 87 3490 922 887 711 1519 1878 1692 3127 113 816 -72 1353
-518 1502 -118 40 -328 39 -461 -1 -233 -69 -347 -149 -675 -471 -913 -894
-1179 -1110 -1466 -1186 -105 -28 -330 -30 -449 -5 -745 161 -1460 975 -1432
1631 17 393 226 690 1163 1645 324 330 398 422 470 589 118 272 108 550 -26
755 -186 283 -598 425 -1135 390z"/>
</g>
</svg>
