<svg width="100" height="100" viewBox="0 0 100 100" xmlns="http://www.w3.org/2000/svg"><path fill="#231F20" d="M92.566 22.081c0-1.676-1.358-3.035-3.035-3.035H10.469c-1.676 0-3.035 1.359-3.035 3.035 0 .043.011.084.013.127h-.013v55.838h.013c.068 1.616 1.389 2.908 3.022 2.908h79.062c1.633 0 2.954-1.292 3.022-2.908h.013V22.208h-.013c.002-.044.013-.084.013-.127Zm-9.957 48.916H17.391V29.003H82.61v41.994Zm4.978-18.386c-1.372 0-2.484-1.112-2.484-2.484 0-1.372 1.112-2.484 2.484-2.484 1.372 0 2.485 1.112 2.485 2.484 -1e-07 1.372-1.113 2.484-2.485 2.484Z"/></svg>