<svg width="100" height="100" viewBox="0 0 100 100" xmlns="http://www.w3.org/2000/svg"><path fill="#231F20" d="M77.919 7.434c-.043 0-.084.011-.127.013v-.013H21.954v.013c-1.616.068-2.908 1.389-2.908 3.022v79.062c0 1.633 1.292 2.954 2.908 3.022v.013h55.838v-.013c.043.002.083.013.127.013 1.676 0 3.035-1.358 3.035-3.035V10.469c0-1.677-1.359-3.035-3.035-3.035ZM49.873 90.072c-1.372 0-2.484-1.113-2.484-2.485 0-1.372 1.112-2.484 2.484-2.484 1.372 0 2.484 1.112 2.484 2.484 0 1.372-1.112 2.485-2.484 2.485Zm21.124-7.463H29.003V17.391h41.995v65.218Z"/></svg>