<svg width="100" height="100" viewBox="0 0 100 100" xmlns="http://www.w3.org/2000/svg"><g><path d="M49.984 27.452c-12.453 0-22.548 10.095-22.548 22.548 0 12.453 10.095 22.548 22.548 22.548 12.453 0 22.547-10.095 22.547-22.548 0-12.453-10.095-22.548-22.547-22.548Zm0 35.156c-6.964 0-12.609-5.645-12.609-12.608 0-6.964 5.645-12.609 12.609-12.609s12.608 5.645 12.608 12.609c0 6.963-5.645 12.608-12.608 12.608Z"/><path d="M50 12.5c-20.712 0-37.5 16.793-37.5 37.502C12.5 70.712 29.288 87.5 50 87.5c20.712 0 37.5-16.788 37.5-37.498C87.5 29.293 70.712 12.5 50 12.5Zm0 65.061c-15.199 0-27.56-12.362-27.56-27.559C22.44 34.807 34.802 22.44 50 22.44c15.198 0 27.56 12.367 27.56 27.562 0 15.196-12.362 27.559-27.56 27.559Z"/><path d="M49.984 42.379a7.621 7.621 0 1 0 0 15.242 7.621 7.621 0 1 0 0-15.242Z"/></g></svg>