<svg width="100" height="100" viewBox="0 0 100 100" xmlns="http://www.w3.org/2000/svg"><g><path d="M30.278 17.553v0H19.823v0h-.001c-1.253 0-2.269 1.017-2.269 2.269 0 0 0 0 0 0v0 10.454 0c0 1.253 1.016 2.269 2.269 2.269h.001v0h10.454v0c1.253 0 2.269-1.016 2.269-2.269v0V19.823v0s0 0 0 0c.001-1.253-1.015-2.27-2.268-2.27Z"/><path d="M55.227 17.553v0H44.773v0h-.001c-1.253 0-2.269 1.017-2.269 2.269 0 0 0 0 0 0v0 10.454 0c0 1.253 1.016 2.269 2.269 2.269h.001v0h10.454v0c1.253 0 2.269-1.016 2.269-2.269v0V19.823v0s0 0 0 0c.001-1.253-1.015-2.27-2.269-2.27Z"/><path d="M82.446 19.822c0-1.252-1.016-2.269-2.269-2.269v0H69.722v0h-.001c-1.253 0-2.269 1.017-2.269 2.269v.001 10.453s0 0 0 .001c0 1.253 1.016 2.27 2.269 2.27h.001v0h10.454v0c1.253 0 2.269-1.016 2.269-2.269v0V19.822h.001s0 0 0 0Z"/><path d="M30.278 42.506v0H19.823v0h-.001c-1.253 0-2.269 1.017-2.269 2.269 0 0 0 0 0 0v0V55.23v0c0 1.253 1.016 2.269 2.269 2.269h.001v0h10.454v0c1.253 0 2.269-1.016 2.269-2.269v0V44.776v0s0 0 0 0c.001-1.253-1.015-2.27-2.268-2.27Z"/><path d="M55.227 42.506v0H44.773v0h-.001c-1.253 0-2.269 1.017-2.269 2.269 0 0 0 0 0 0v0V55.23v0c0 1.253 1.016 2.269 2.269 2.269h.001v0h10.454v0c1.253 0 2.269-1.016 2.269-2.269v0V44.776v0s0 0 0 0c.001-1.253-1.015-2.27-2.269-2.27Z"/><path d="M80.177 42.506v0H69.722v0h-.001c-1.253 0-2.269 1.017-2.269 2.269v.001 10.453s0 0 0 .001c0 1.253 1.016 2.27 2.269 2.27h.001v0h10.454v0c1.253 0 2.269-1.016 2.269-2.269v0V44.776v0s0 0 0 0c.001-1.253-1.015-2.27-2.268-2.27Z"/><path d="M30.278 67.454v0H19.823v0h-.001c-1.253 0-2.269 1.017-2.269 2.269v0 0 10.454 0c0 1.253 1.016 2.269 2.269 2.269h.001v0h10.454v0c1.253 0 2.269-1.016 2.269-2.269v0V69.723v0 0c.001-1.252-1.015-2.269-2.268-2.269Z"/><path d="M55.227 67.454v0H44.773v0h-.001c-1.253 0-2.269 1.017-2.269 2.269v0 0 10.454 0c0 1.253 1.016 2.269 2.269 2.269h.001v0h10.454v0c1.253 0 2.269-1.016 2.269-2.269v0V69.723v0 0c.001-1.252-1.015-2.269-2.269-2.269Z"/><path d="M80.177 67.454v0H69.722v0h-.001c-1.253 0-2.269 1.017-2.269 2.269v0 10.453 .001c0 1.253 1.016 2.27 2.269 2.27h.001v0h10.454v0c1.253 0 2.269-1.016 2.269-2.269v0V69.723v0 0c.001-1.252-1.015-2.269-2.268-2.269Z"/></g></svg>