<svg width="100" height="100" viewBox="0 0 100 100" xmlns="http://www.w3.org/2000/svg"><g><path d="M99.483 33.642c-.029-.029-.063-.05-.094-.077L87.158 21.327c-2.378 1.59-5.623 1.336-7.722-.763 -2.1-2.1-2.353-5.347-.761-7.725L66.358.516c-.689-.688-1.805-.687-2.494 0v0l-63.344 63.346c-.001.001-.002.002-.003.003 -.689.689-.689 1.805 0 2.494l.001.001v0l12.325 12.313c2.377-1.59 5.623-1.336 7.722.763 2.098 2.098 2.353 5.34.767 7.718l12.166 12.154c.046.06.089.122.144.176 .689.689 1.804.689 2.493 0l.001.001 63.347-63.349v0c.689-.69.689-1.806 0-2.494Zm-13.965 2.493L36.136 85.518v0 0c-.689.689-1.804.689-2.493 0v0 0l-19.159-19.16v0c-.689-.689-.689-1.804-1e-07-2.493v0l49.381-49.382v0c.689-.688 1.805-.688 2.493 0v0l19.16 19.161c.689.687.689 1.803 0 2.491Z"/><path d="M61.923 51.521l-6.821-3.259 .83-7.134c.025-.216-.09-.425-.286-.52 -.195-.094-.43-.055-.585.099l-5.097 5.098 -6.653-3.178c-.196-.094-.429-.054-.583.099 -.154.152-.193.386-.1.582l3.179 6.655 -5.098 5.096c-.154.153-.193.389-.099.586 .095.195.304.309.52.284l7.132-.829 3.26 6.822c.093.194.299.309.513.288 .215-.021.394-.176.446-.386l1.87-7.476 7.478-1.871c.091-.023.173-.071.238-.135 .081-.081.135-.191.148-.311 .019-.212-.096-.418-.292-.51Z"/></g></svg>