<?xml version="1.0" standalone="no"?>
<!DOCTYPE svg PUBLIC "-//W3C//DTD SVG 20010904//EN"
 "http://www.w3.org/TR/2001/REC-SVG-20010904/DTD/svg10.dtd">
<svg version="1.0" xmlns="http://www.w3.org/2000/svg"
 width="1600.000000pt" height="1600.000000pt" viewBox="0 0 1600.000000 1600.000000"
 preserveAspectRatio="xMidYMid meet">
<g transform="translate(0.000000,1600.000000) scale(0.100000,-0.100000)"
fill="#000000" stroke="none">
<path d="M3130 13985 c-439 -73 -811 -352 -1001 -749 -148 -312 -169 -671 -57
-1001 233 -686 995 -1064 1682 -834 718 240 1092 1029 825 1739 -160 424 -527
737 -979 835 -105 23 -362 28 -470 10z"/>
<path d="M7175 13980 c-186 -49 -212 -70 -721 -582 -423 -426 -441 -446 -473
-517 -67 -148 -65 -295 5 -441 35 -71 60 -98 488 -525 487 -487 501 -498 661
-553 80 -27 80 -27 3145 -30 2238 -2 3086 0 3145 8 274 39 500 248 559 517 23
103 24 1510 1 1618 -40 191 -178 366 -360 456 -151 74 121 69 -3300 68 -2972
0 -3082 -1 -3150 -19z"/>
<path d="M3101 9314 c-531 -89 -958 -507 -1078 -1056 -25 -117 -25 -399 0
-516 92 -419 348 -752 725 -941 316 -159 740 -174 1078 -41 657 261 999 1005
767 1674 -160 460 -559 799 -1037 881 -110 19 -340 18 -455 -1z"/>
<path d="M7170 9314 c-30 -8 -93 -33 -140 -55 -84 -41 -92 -49 -538 -493 -553
-551 -556 -555 -556 -766 0 -211 3 -215 556 -766 446 -444 454 -452 538 -493
161 -78 -152 -71 3326 -69 3119 3 3119 3 3192 30 202 74 347 220 419 423 28
80 28 80 28 875 0 795 0 795 -28 875 -72 203 -217 349 -419 423 -73 27 -73 27
-3198 29 -2695 2 -3133 0 -3180 -13z"/>
<path d="M3215 4664 c-682 -74 -1187 -610 -1212 -1284 -14 -379 119 -714 391
-986 754 -754 2025 -370 2247 679 28 131 31 358 6 493 -98 538 -515 966 -1047
1074 -97 20 -304 33 -385 24z"/>
<path d="M7224 4659 c-71 -12 -172 -50 -241 -90 -93 -54 -949 -914 -991 -995
-59 -114 -76 -245 -47 -358 36 -137 38 -139 510 -614 475 -479 515 -513 664
-566 86 -31 86 -31 3184 -34 3446 -2 3170 -8 3322 67 182 90 320 265 360 456
23 108 22 1515 -1 1618 -57 260 -270 465 -534 513 -87 15 -6133 19 -6226 3z"/>
</g>
</svg>
