<svg width="18" height="18" viewBox="0 0 18 18" xmlns="http://www.w3.org/2000/svg"><g transform="translate(2.33333 1)"><g fill-rule="evenodd"><path d="M11.188 4.75333H2.21867c-.292 0-.473333.036-.546667.109333C1.59867 4.936 1.57467 5.08133 1.59867 5.3L2.292 14.124c.048.242667.0973333.394667.145333.456 .048.06.206667.0906667.474667.0906667h7.58267c.170667 0 .297333-.0186667.382667-.0546667 .0853334-.036.14-.0853333.164-.146667 .024-.06.0493334-.174667.0733334-.345333L11.808 5.3c.024-.241333 0-.393333-.0733333-.454667C11.6613 4.784 11.48 4.75333 11.188 4.75333"/><path d="M12.3173 2.676c-.072-.194667-.304-.328-.692-.401333L9.69333 2.056c-.170667-.024-.292-.109333-.365333-.256 -.048-.096-.102667-.224-.164-.381333C9.10267 1.26 9.05467 1.15067 9.01867 1.08933c-.0373334-.06-.08-.133333-.128-.218667C8.84133.786666 8.79333.732 8.74533.706666c-.0493334-.024-.109333-.036-.182667-.036H4.808c-.0733334 0-.134667.012-.182667.036C4.576.732 4.528.78 4.48.852 4.43067.925333 4.39467.998666 4.36933 1.07067 4.34533 1.144 4.30267 1.25333 4.24267 1.4c-.0613334.145333-.116.28-.164.4 -.0733334.146667-.194667.232-.365333.256l-1.932.254667c-.389333.0733333-.62.208-.692.401333l-.146667.474667c-.048.218667-.0666667.34-.0546667.364 .012.0253333.116.036.310667.036H12.208c.0733333 0 .157333-.133333.256-.4C12.4147 2.968 12.3653 2.79733 12.3173 2.676"/></g></g></svg>