<svg width="100" height="100" viewBox="0 0 100 100" xmlns="http://www.w3.org/2000/svg"><g><path d="M75.834 33.388h-51.67c-1.311 0-2.375 1.058-2.375 2.373v49.887c0 1.314 1.064 2.377 2.375 2.377h51.67c1.314 0 2.375-1.063 2.375-2.377V35.76c0-1.314-1.061-2.372-2.375-2.372Z"/><path d="M79.004 17.352H59.402v-2.999c0-1.314-1.061-2.377-2.373-2.377H42.971c-1.312 0-2.375 1.063-2.375 2.377v2.999h-19.6c-1.312 0-2.375 1.059-2.375 2.373v6.932c0 1.314 1.063 2.373 2.375 2.373h58.008c1.314 0 2.375-1.059 2.375-2.373v-6.932c-1e-07-1.315-1.061-2.373-2.375-2.373Z"/></g></svg>