<svg width="18" height="18" viewBox="0 0 18 18" xmlns="http://www.w3.org/2000/svg"><path fill-rule="evenodd" d="M6.412 5.12373c-.0746667.0832-.112.184533-.112.3008v7.14987c0 .117333.0373333.216533.112.299733C6.48667 12.9584 6.58373 13 6.7 13c.100267 0 .173867-.0266667.225067-.0757333L6.9752 12.8741 10.8749 9.4736c.149333-.1504.224-.308267.224-.4736 0-.167467-.0746666-.325333-.224-.475733L6.9752 5.12373 6.90053 5.07467 6.7 5c-.116267 0-.213333.0416-.288.123733Z" transform="rotate(180 8.69947 9)"/></svg>