<svg width="18" height="18" viewBox="0 0 18 18" xmlns="http://www.w3.org/2000/svg"><path fill-rule="evenodd" d="M13.0506 7.11307c.0067615.0907968.0067615.180628.0067615.271425 0 2.76351-2.10282 5.94623-5.94623 5.94623 -1.18422 0-2.28441-.341937-3.20977-.937913 .168071.0193185.330346.02608.505178.02608 .977515 0 1.87582-.330346 2.59351-.89348 -.918594-.0193185-1.68844-.621089-1.9531-1.44889 .129434.0193185.257902.0328414.394097.0328414 .187389 0 .375744-.02608.549611-.0714784 -.957231-.194151-1.67491-1.03547-1.67491-2.05162v-.02608c.278186.15648.601771.253072.944674.265629 -.562168-.374779-.931151-1.01519-.931151-1.73963 0-.389268.102388-.744728.283982-1.05576 1.02871 1.26826 2.57515 2.09702 4.30995 2.18685 -.0338074-.154548-.05216-.316823-.05216-.478133 0-1.15235.932117-2.09026 2.08929-2.09026 .601771 0 1.14559.253072 1.52713.659726 .472337-.089831.925356-.264663 1.32621-.504212 -.154548.484894-.484894.892514-.918594 1.15138C13.3153 6.31038 13.7229 6.19447 14.0986 6.0322c-.284948.414382-.640408.783365-1.04803 1.08087M9.00048-1e-07C4.02984-1e-07-6e-07 4.02984-6e-07 9.00048 -6e-07 13.9702 4.02984 18 9.00048 18 13.9711 18 18 13.9702 18 9.00048 18 4.02984 13.9711-1e-07 9.00048-1e-07"/></svg>