<svg width="100" height="100" viewBox="0 0 100 100" xmlns="http://www.w3.org/2000/svg"><path fill="#231F20" d="M50 12.5c-20.712 0-37.5 16.793-37.5 37.502C12.5 70.712 29.288 87.5 50 87.5c20.712 0 37.5-16.788 37.5-37.498C87.5 29.293 70.712 12.5 50 12.5ZM22.897 54.969h5.752c.985 7.432 4.148 14.173 8.826 19.569 -7.501-3.844-13.015-11.022-14.578-19.569Zm5.752-9.939h-5.752c1.564-8.546 7.078-15.724 14.579-19.568 -4.678 5.396-7.842 12.137-8.827 19.568ZM45.03 68.059c-3.177-3.65-5.406-8.14-6.313-13.089h6.313v13.089Zm0-23.029h-6.313c.907-4.948 3.136-9.437 6.313-13.088V45.03Zm32.072 0h-5.751c-.985-7.431-4.148-14.172-8.825-19.567 7.499 3.845 13.013 11.023 14.576 19.567ZM54.97 68.057V54.969h6.313c-.908 4.948-3.137 9.438-6.313 13.088Zm0-23.027V31.941c3.177 3.65 5.406 8.14 6.313 13.089H54.97Zm7.553 29.509c4.678-5.396 7.843-12.137 8.828-19.57h5.752c-1.563 8.548-7.078 15.726-14.58 19.57Z"/></svg>