<svg width="100" height="100" viewBox="0 0 100 100" xmlns="http://www.w3.org/2000/svg"><path d="M84.707 68.752L65.951 49.998l18.75-18.752c.777-.777.777-2.036 0-2.813L71.566 15.295c-.777-.777-2.037-.777-2.814 0L49.999 34.047l-18.75-18.752c-.746-.747-2.067-.747-2.814 0L15.297 28.431c-.373.373-.583.88-.583 1.407s.21 1.034.583 1.407L34.05 49.998 15.294 68.753c-.373.374-.583.88-.583 1.407 0 .528.21 1.035.583 1.407L28.43 84.704c.373.373.881.583 1.41.583 .525 0 1.031-.21 1.404-.583l18.755-18.755 18.756 18.754c.389.388.896.583 1.407.583s1.019-.195 1.408-.583l13.138-13.137c.776-.777.776-2.036-.001-2.814Z"/></svg>